thinwide.ufo
<glyph name="exclam" format="1">
  <advance width="240"/>
  <unicode hex="0021"/>
  <outline>
    <contour>
      <point x="137" y="12"/>
      <point x="109" y="12"/>
      <point x="137" y="12" type="curve"/>
      <point x="137" y="21"/>
      <point x="131" y="26"/>
      <point x="122" y="26" type="curve"/>
      <point x="114" y="26"/>
      <point x="109" y="20"/>
      <point x="109" y="12" type="curve"/>
      <point x="137" y="12"/>
      <point x="109" y="12"/>
      <point x="137" y="12" type="curve"/>
      <point x="137" y="2"/>
      <point x="131" y="-2"/>
      <point x="122" y="-2" type="curve"/>
      <point x="114" y="-2"/>
      <point x="109" y="4"/>
      <point x="109" y="12" type="curve"/>
    </contour>
    <contour>
      <point x="135" y="230"/>
      <point x="111" y="230"/>
      <point x="135" y="230" type="curve"/>
      <point x="135" y="394"/>
      <point x="135" y="558"/>
      <point x="135" y="722" type="curve"/>
      <point x="111" y="722"/>
      <point x="135" y="722"/>
      <point x="111" y="722" type="curve"/>
      <point x="111" y="558"/>
      <point x="111" y="394"/>
      <point x="111" y="230" type="curve"/>
    </contour>
  </outline>
</glyph>
<glyph name="quotedbl" format="1">
  <advance width="534"/>
  <unicode hex="0022"/>
  <outline>
    <contour>
      <point x="209.2" y="658"/>
      <point x="185.0" y="658"/>
      <point x="209.2" y="658" type="curve"/>
      <point x="209.2" y="720.66604"/>
      <point x="209.2" y="783.33396"/>
      <point x="209.2" y="846" type="curve"/>
      <point x="185.0" y="846"/>
      <point x="209.2" y="846"/>
      <point x="185.0" y="846" type="curve"/>
      <point x="185.0" y="783.33396"/>
      <point x="185.0" y="720.66604"/>
      <point x="185.0" y="658" type="curve"/>
    </contour>
    <contour>
      <point x="460.425" y="658"/>
      <point x="437.325" y="658"/>
      <point x="460.425" y="658" type="curve"/>
      <point x="460.425" y="720.66604"/>
      <point x="460.425" y="783.33396"/>
      <point x="460.425" y="846" type="curve"/>
      <point x="437.325" y="846"/>
      <point x="460.425" y="846"/>
      <point x="437.325" y="846" type="curve"/>
      <point x="437.325" y="783.33396"/>
      <point x="437.325" y="720.66604"/>
      <point x="437.325" y="658" type="curve"/>
    </contour>
  </outline>
</glyph>
<glyph name="numbersign" format="1">
  <advance width="839"/>
  <unicode hex="0023"/>
  <outline>
    <contour>
      <point x="50.825" y="247.448888889"/>
      <point x="58.525" y="269.008888889"/>
      <point x="50.825" y="247.448888889" type="curve"/>
      <point x="269.03115125" y="247.448888889"/>
      <point x="487.24384875" y="247.448888889"/>
      <point x="705.45" y="247.448888889" type="curve"/>
      <point x="712.05" y="269.008888889"/>
      <point x="705.45" y="247.448888889"/>
      <point x="712.05" y="269.008888889" type="curve"/>
      <point x="494.21051175" y="269.008888889"/>
      <point x="276.36448825" y="269.008888889"/>
      <point x="58.525" y="269.008888889" type="curve"/>
    </contour>
    <contour>
      <point x="149.375" y="491.904444444"/>
      <point x="157.075" y="513.464444444"/>
      <point x="149.375" y="491.904444444" type="curve"/>
      <point x="367.58115125" y="491.904444444"/>
      <point x="585.79384875" y="491.904444444"/>
      <point x="804.0" y="491.904444444" type="curve"/>
      <point x="810.6" y="513.464444444"/>
      <point x="804.0" y="491.904444444"/>
      <point x="810.6" y="513.464444444" type="curve"/>
      <point x="592.76051175" y="513.464444444"/>
      <point x="374.91448825" y="513.464444444"/>
      <point x="157.075" y="513.464444444" type="curve"/>
    </contour>
    <contour>
      <point x="503.5" y="39"/>
      <point x="479.3" y="39"/>
      <point x="503.5" y="39" type="curve"/>
      <point x="503.5" y="39"/>
      <point x="796.45" y="722"/>
      <point x="796.45" y="722" type="curve"/>
      <point x="772.25" y="722"/>
      <point x="796.45" y="722"/>
      <point x="772.25" y="722" type="curve"/>
      <point x="772.25" y="722"/>
      <point x="479.3" y="39"/>
      <point x="479.3" y="39" type="curve"/>
    </contour>
    <contour>
      <point x="125.625" y="46"/>
      <point x="102.525" y="46"/>
      <point x="125.625" y="46" type="curve"/>
      <point x="125.625" y="46"/>
      <point x="413.05" y="722"/>
      <point x="413.05" y="722" type="curve"/>
      <point x="388.85" y="722"/>
      <point x="413.05" y="722"/>
      <point x="388.85" y="722" type="curve"/>
      <point x="388.85" y="722"/>
      <point x="102.525" y="46"/>
      <point x="102.525" y="46" type="curve"/>
    </contour>
  </outline>
</glyph>
<glyph name="parenright" format="1">
  <advance width="537"/>
  <unicode hex="0029"/>
  <outline>
    <contour>
      <point x="130" y="-267"/>
      <point x="115" y="-252"/>
      <point x="130" y="-267" type="curve"/>
      <point x="346" y="-104"/>
      <point x="477" y="57"/>
      <point x="477" y="327" type="curve"/>
      <point x="477" y="591"/>
      <point x="353" y="751"/>
      <point x="135" y="903" type="curve"/>
      <point x="121" y="887"/>
      <point x="135" y="903"/>
      <point x="121" y="887" type="curve"/>
      <point x="330" y="736"/>
      <point x="451" y="582"/>
      <point x="451" y="326" type="curve"/>
      <point x="451" y="65"/>
      <point x="320" y="-89"/>
      <point x="115" y="-252" type="curve"/>
    </contour>
  </outline>
</glyph>
<glyph name="hyphen" format="1">
  <advance width="472"/>
  <unicode hex="002D"/>
  <outline>
    <contour>
      <point x="122.85" y="260.339777778"/>
      <point x="122.85" y="284.055777778"/>
      <point x="122.85" y="260.339777778" type="curve"/>
      <point x="253.7986905" y="260.339777778"/>
      <point x="384.7513095" y="260.339777778"/>
      <point x="515.7" y="260.339777778" type="curve"/>
      <point x="515.7" y="284.055777778"/>
      <point x="515.7" y="260.339777778"/>
      <point x="515.7" y="284.055777778" type="curve"/>
      <point x="384.7513095" y="284.055777778"/>
      <point x="253.7986905" y="284.055777778"/>
      <point x="122.85" y="284.055777778" type="curve"/>
    </contour>
  </outline>
</glyph>
<glyph name="period" format="1">
  <advance width="168"/>
  <unicode hex="002E"/>
  <outline>
    <contour>
      <point x="90" y="12"/>
      <point x="62" y="12"/>
      <point x="90" y="12" type="curve"/>
      <point x="90" y="21"/>
      <point x="84" y="26"/>
      <point x="75" y="26" type="curve"/>
      <point x="67" y="26"/>
      <point x="62" y="20"/>
      <point x="62" y="12" type="curve"/>
      <point x="90" y="12"/>
      <point x="62" y="12"/>
      <point x="90" y="12" type="curve"/>
      <point x="90" y="2"/>
      <point x="84" y="-2"/>
      <point x="75" y="-2" type="curve"/>
      <point x="67" y="-2"/>
      <point x="62" y="4"/>
      <point x="62" y="12" type="curve"/>
    </contour>
  </outline>
</glyph>
<glyph name="zero" format="1">
  <advance width="839"/>
  <unicode hex="0030"/>
  <outline>
    <contour>
      <point x="74" y="360"/>
      <point x="53" y="360"/>
      <point x="76" y="360" type="curve"/>
      <point x="76" y="576"/>
      <point x="209" y="703"/>
      <point x="427" y="703" type="curve"/>
      <point x="643" y="703"/>
      <point x="775" y="575"/>
      <point x="775" y="362" type="curve"/>
      <point x="775" y="148"/>
      <point x="644" y="20"/>
      <point x="430" y="20" type="curve"/>
      <point x="211" y="20"/>
      <point x="76" y="145"/>
      <point x="76" y="360" type="curve"/>
      <point x="53" y="360"/>
      <point x="74" y="360"/>
      <point x="51" y="360" type="curve"/>
      <point x="51" y="130"/>
      <point x="196" y="-5"/>
      <point x="429" y="-5" type="curve"/>
      <point x="659" y="-5"/>
      <point x="799" y="133"/>
      <point x="799" y="363" type="curve"/>
      <point x="799" y="592"/>
      <point x="658" y="727"/>
      <point x="428" y="727" type="curve"/>
      <point x="195" y="727"/>
      <point x="51" y="591"/>
      <point x="51" y="360" type="curve"/>
    </contour>
  </outline>
</glyph>
<glyph name="one" format="1">
  <advance width="531"/>
  <unicode hex="0031"/>
  <outline>
    <contour>
      <point x="309" y="0"/>
      <point x="309" y="22"/>
      <point x="309" y="0" type="curve"/>
      <point x="375" y="0"/>
      <point x="441" y="0"/>
      <point x="508" y="0" type="curve"/>
      <point x="508" y="22"/>
      <point x="508" y="0"/>
      <point x="508" y="22" type="curve"/>
      <point x="309" y="22"/>
      <point x="508" y="22"/>
      <point x="309" y="22" type="curve"/>
    </contour>
    <contour>
      <point x="309" y="22"/>
      <point x="309" y="0"/>
      <point x="309" y="22" type="curve"/>
      <point x="110" y="22"/>
      <point x="309" y="22"/>
      <point x="110" y="22" type="curve"/>
      <point x="110" y="0"/>
      <point x="110" y="22"/>
      <point x="110" y="0" type="curve"/>
      <point x="176" y="0"/>
      <point x="242" y="0"/>
      <point x="309" y="0" type="curve"/>
    </contour>
    <contour>
      <point x="37" y="531"/>
      <point x="23" y="550"/>
      <point x="37" y="531" type="curve"/>
      <point x="314" y="705"/>
      <point x="37" y="531"/>
      <point x="314" y="705" type="curve"/>
      <point x="294" y="722"/>
      <point x="314" y="705"/>
      <point x="294" y="722" type="curve"/>
      <point x="23" y="550"/>
      <point x="294" y="722"/>
      <point x="23" y="550" type="curve"/>
    </contour>
    <contour>
      <point x="318" y="0"/>
      <point x="294" y="0"/>
      <point x="318" y="0" type="curve"/>
      <point x="318" y="241"/>
      <point x="318" y="481"/>
      <point x="318" y="722" type="curve"/>
      <point x="294" y="722"/>
      <point x="318" y="722"/>
      <point x="294" y="722" type="curve"/>
      <point x="294" y="481"/>
      <point x="294" y="241"/>
      <point x="294" y="0" type="curve"/>
    </contour>
  </outline>
</glyph>
<glyph name="two" format="1">
  <advance width="737"/>
  <unicode hex="0032"/>
  <outline>
    <contour>
      <point x="670" y="22"/>
      <point x="648" y="22"/>
      <point x="670" y="22" type="curve"/>
      <point x="670" y="142"/>
      <point x="670" y="22"/>
      <point x="670" y="142" type="curve"/>
      <point x="648" y="142"/>
      <point x="670" y="142"/>
      <point x="648" y="142" type="curve"/>
      <point x="648" y="22"/>
      <point x="648" y="142"/>
      <point x="648" y="22" type="curve"/>
    </contour>
    <contour>
      <point x="87" y="0"/>
      <point x="87" y="22"/>
      <point x="87" y="0" type="curve"/>
      <point x="287" y="0"/>
      <point x="469" y="0"/>
      <point x="670" y="0" type="curve"/>
      <point x="670" y="22"/>
      <point x="670" y="0"/>
      <point x="670" y="22" type="curve"/>
      <point x="465" y="22"/>
      <point x="291" y="22"/>
      <point x="87" y="22" type="curve"/>
    </contour>
    <contour>
      <point x="136" y="563"/>
      <point x="117" y="576"/>
      <point x="136" y="563" type="curve"/>
      <point x="203" y="656"/>
      <point x="280" y="702"/>
      <point x="394" y="702" type="curve"/>
      <point x="525" y="702"/>
      <point x="622" y="651"/>
      <point x="622" y="526" type="curve"/>
      <point x="622" y="380"/>
      <point x="520" y="319"/>
      <point x="395" y="237" type="curve"/>
      <point x="292" y="165"/>
      <point x="189" y="93"/>
      <point x="87" y="22" type="curve"/>
      <point x="98" y="0"/>
      <point x="87" y="22"/>
      <point x="98" y="0" type="curve"/>
      <point x="202" y="73"/>
      <point x="306" y="147"/>
      <point x="410" y="220" type="curve"/>
      <point x="541" y="305"/>
      <point x="646" y="373"/>
      <point x="646" y="527" type="curve"/>
      <point x="646" y="665"/>
      <point x="542" y="727"/>
      <point x="396" y="727" type="curve"/>
      <point x="273" y="727"/>
      <point x="182" y="675"/>
      <point x="117" y="576" type="curve"/>
    </contour>
  </outline>
</glyph>
<glyph name="four" format="1">
  <advance width="798"/>
  <unicode hex="0034"/>
  <outline>
    <contour>
      <point x="505" y="22"/>
      <point x="505" y="0"/>
      <point x="505" y="22" type="curve"/>
      <point x="306" y="22"/>
      <point x="505" y="22"/>
      <point x="306" y="22" type="curve"/>
      <point x="306" y="0"/>
      <point x="306" y="22"/>
      <point x="306" y="0" type="curve"/>
      <point x="373" y="0"/>
      <point x="439" y="0"/>
      <point x="505" y="0" type="curve"/>
    </contour>
    <contour>
      <point x="505" y="0"/>
      <point x="505" y="22"/>
      <point x="505" y="0" type="curve"/>
      <point x="572" y="0"/>
      <point x="638" y="0"/>
      <point x="704" y="0" type="curve"/>
      <point x="704" y="22"/>
      <point x="704" y="0"/>
      <point x="704" y="22" type="curve"/>
      <point x="505" y="22"/>
      <point x="704" y="22"/>
      <point x="505" y="22" type="curve"/>
    </contour>
    <contour>
      <point x="62" y="264"/>
      <point x="49" y="288"/>
      <point x="62" y="264" type="curve"/>
      <point x="511" y="705"/>
      <point x="62" y="264"/>
      <point x="511" y="705" type="curve"/>
      <point x="495" y="722"/>
      <point x="511" y="705"/>
      <point x="495" y="722" type="curve"/>
      <point x="49" y="288"/>
      <point x="495" y="722"/>
      <point x="49" y="288" type="curve"/>
    </contour>
    <contour>
      <point x="773" y="288"/>
      <point x="773" y="264"/>
      <point x="773" y="288" type="curve"/>
      <point x="773" y="288"/>
      <point x="49" y="288"/>
      <point x="49" y="288" type="curve"/>
      <point x="62" y="264"/>
      <point x="49" y="288"/>
      <point x="62" y="264" type="curve"/>
      <point x="62" y="264"/>
      <point x="773" y="264"/>
      <point x="773" y="264" type="curve"/>
    </contour>
    <contour>
      <point x="495" y="722"/>
      <point x="519" y="722"/>
      <point x="495" y="722" type="curve"/>
      <point x="495" y="722"/>
      <point x="495" y="1"/>
      <point x="495" y="1" type="curve"/>
      <point x="519" y="1"/>
      <point x="495" y="1"/>
      <point x="519" y="1" type="curve"/>
      <point x="519" y="1"/>
      <point x="519" y="722"/>
      <point x="519" y="722" type="curve"/>
    </contour>
  </outline>
</glyph>
<glyph name="five" format="1">
  <advance width="677"/>
  <unicode hex="0035"/>
  <outline>
    <contour>
      <point x="160" y="722"/>
      <point x="183" y="700"/>
      <point x="160" y="722" type="curve"/>
      <point x="160" y="619"/>
      <point x="160" y="504"/>
      <point x="160" y="400" type="curve"/>
      <point x="183" y="396"/>
      <point x="160" y="400"/>
      <point x="183" y="396" type="curve"/>
      <point x="183" y="498"/>
      <point x="183" y="599"/>
      <point x="183" y="700" type="curve"/>
    </contour>
    <contour>
      <point x="183" y="396"/>
      <point x="160" y="412"/>
      <point x="183" y="396" type="curve"/>
      <point x="218" y="410"/>
      <point x="292" y="422"/>
      <point x="344" y="422" type="curve"/>
      <point x="487" y="422"/>
      <point x="599.45" y="354.723932203"/>
      <point x="599.45" y="224.304444444" type="curve"/>
      <point x="599.45" y="91.8078230516"/>
      <point x="475.856423648" y="21.56"/>
      <point x="329.275" y="21.56" type="curve"/>
      <point x="246.902335429" y="21.56"/>
      <point x="181" y="38"/>
      <point x="105" y="68" type="curve"/>
      <point x="94" y="44"/>
      <point x="105" y="68"/>
      <point x="94" y="44" type="curve"/>
      <point x="169" y="12"/>
      <point x="242.263567659" y="-5.0"/>
      <point x="328.175" y="-5" type="curve"/>
      <point x="489.805879169" y="-5.0"/>
      <point x="623.65" y="74.8789838803"/>
      <point x="623.65" y="224.304444444" type="curve"/>
      <point x="623.65" y="367.522831111"/>
      <point x="501.630646882" y="445.655666667"/>
      <point x="345.35" y="445.655666667" type="curve"/>
      <point x="282.766814399" y="445.655666667"/>
      <point x="203" y="431"/>
      <point x="160" y="412" type="curve"/>
    </contour>
    <contour>
      <point x="601" y="722"/>
      <point x="601" y="700"/>
      <point x="601" y="722" type="curve"/>
      <point x="449" y="722"/>
      <point x="312" y="722"/>
      <point x="160" y="722" type="curve"/>
      <point x="183" y="700"/>
      <point x="160" y="722"/>
      <point x="183" y="700" type="curve"/>
      <point x="327" y="700"/>
      <point x="457" y="700"/>
      <point x="601" y="700" type="curve"/>
    </contour>
  </outline>
</glyph>
<glyph name="colon" format="1">
  <advance width="168"/>
  <unicode hex="003A"/>
  <outline>
    <contour>
      <point x="90" y="427"/>
      <point x="62" y="427"/>
      <point x="90" y="427" type="curve"/>
      <point x="90" y="436"/>
      <point x="84" y="441"/>
      <point x="75" y="441" type="curve"/>
      <point x="67" y="441"/>
      <point x="62" y="435"/>
      <point x="62" y="427" type="curve"/>
      <point x="90" y="427"/>
      <point x="62" y="427"/>
      <point x="90" y="427" type="curve"/>
      <point x="90" y="417"/>
      <point x="84" y="413"/>
      <point x="75" y="413" type="curve"/>
      <point x="67" y="413"/>
      <point x="62" y="419"/>
      <point x="62" y="427" type="curve"/>
    </contour>
    <contour>
      <point x="90" y="12"/>
      <point x="62" y="12"/>
      <point x="90" y="12" type="curve"/>
      <point x="90" y="21"/>
      <point x="84" y="26"/>
      <point x="75" y="26" type="curve"/>
      <point x="67" y="26"/>
      <point x="62" y="20"/>
      <point x="62" y="12" type="curve"/>
      <point x="90" y="12"/>
      <point x="62" y="12"/>
      <point x="90" y="12" type="curve"/>
      <point x="90" y="2"/>
      <point x="84" y="-2"/>
      <point x="75" y="-2" type="curve"/>
      <point x="67" y="-2"/>
      <point x="62" y="4"/>
      <point x="62" y="12" type="curve"/>
    </contour>
  </outline>
</glyph>
<glyph name="semicolon" format="1">
  <advance width="146"/>
  <unicode hex="003B"/>
  <outline>
    <contour>
      <point x="-44" y="-99"/>
      <point x="-68" y="-99"/>
      <point x="-44" y="-99" type="curve"/>
      <point x="6" y="-39"/>
      <point x="55" y="22"/>
      <point x="104" y="82" type="curve"/>
      <point x="73" y="82"/>
      <point x="104" y="82"/>
      <point x="73" y="82" type="curve"/>
      <point x="26" y="22"/>
      <point x="-21" y="-39"/>
      <point x="-68" y="-99" type="curve"/>
    </contour>
    <contour>
      <point x="90" y="427"/>
      <point x="62" y="427"/>
      <point x="90" y="427" type="curve"/>
      <point x="90" y="436"/>
      <point x="84" y="441"/>
      <point x="75" y="441" type="curve"/>
      <point x="67" y="441"/>
      <point x="62" y="435"/>
      <point x="62" y="427" type="curve"/>
      <point x="90" y="427"/>
      <point x="62" y="427"/>
      <point x="90" y="427" type="curve"/>
      <point x="90" y="417"/>
      <point x="84" y="413"/>
      <point x="75" y="413" type="curve"/>
      <point x="67" y="413"/>
      <point x="62" y="419"/>
      <point x="62" y="427" type="curve"/>
    </contour>
  </outline>
</glyph>
<glyph name="equal" format="1">
  <advance width="926"/>
  <unicode hex="003D"/>
  <outline>
    <contour>
      <point x="51.3" y="206.181"/>
      <point x="51.3" y="228.819"/>
      <point x="51.3" y="206.181" type="curve"/>
      <point x="334.3471695" y="206.181"/>
      <point x="617.4028305" y="206.181"/>
      <point x="900.45" y="206.181" type="curve"/>
      <point x="900.45" y="228.819"/>
      <point x="900.45" y="206.181"/>
      <point x="900.45" y="228.819" type="curve"/>
      <point x="617.4028305" y="228.819"/>
      <point x="334.3471695" y="228.819"/>
      <point x="51.3" y="228.819" type="curve"/>
    </contour>
    <contour>
      <point x="51.3" y="428.181"/>
      <point x="51.3" y="450.819"/>
      <point x="51.3" y="428.181" type="curve"/>
      <point x="334.3471695" y="428.181"/>
      <point x="617.4028305" y="428.181"/>
      <point x="900.45" y="428.181" type="curve"/>
      <point x="900.45" y="450.819"/>
      <point x="900.45" y="428.181"/>
      <point x="900.45" y="450.819" type="curve"/>
      <point x="617.4028305" y="450.819"/>
      <point x="334.3471695" y="450.819"/>
      <point x="51.3" y="450.819" type="curve"/>
    </contour>
  </outline>
</glyph>
<glyph name="greater" format="1">
  <advance width="919"/>
  <unicode hex="003E"/>
  <outline>
    <contour>
      <point x="63.45" y="24.142"/>
      <point x="63.45" y="47.858"/>
      <point x="63.45" y="24.142" type="curve"/>
      <point x="337.4972595" y="114.1411"/>
      <point x="611.5527405" y="204.1429"/>
      <point x="885.6" y="294.142" type="curve"/>
      <point x="885.6" y="317.858"/>
      <point x="885.6" y="294.142"/>
      <point x="885.6" y="317.858" type="curve"/>
      <point x="611.5527405" y="227.8589"/>
      <point x="337.4972595" y="137.8571"/>
      <point x="63.45" y="47.858" type="curve"/>
    </contour>
    <contour>
      <point x="49.95" y="558.142"/>
      <point x="49.95" y="581.858"/>
      <point x="49.95" y="558.142" type="curve"/>
      <point x="328.4972145" y="470.14288"/>
      <point x="607.0527855" y="382.14112"/>
      <point x="885.6" y="294.142" type="curve"/>
      <point x="885.6" y="317.858"/>
      <point x="885.6" y="294.142"/>
      <point x="885.6" y="317.858" type="curve"/>
      <point x="607.0527855" y="405.85712"/>
      <point x="328.4972145" y="493.85888"/>
      <point x="49.95" y="581.858" type="curve"/>
    </contour>
  </outline>
</glyph>
<glyph name="at" format="1">
  <advance width="967"/>
  <unicode hex="0040"/>
  <outline>
    <contour>
      <point x="732" y="-74"/>
      <point x="743" y="-94"/>
      <point x="732" y="-74" type="curve"/>
      <point x="654" y="-107"/>
      <point x="599" y="-111"/>
      <point x="515" y="-111" type="curve"/>
      <point x="255" y="-111"/>
      <point x="68" y="-16"/>
      <point x="68" y="219" type="curve"/>
      <point x="68" y="451"/>
      <point x="257" y="545"/>
      <point x="513" y="545" type="curve"/>
      <point x="754" y="545"/>
      <point x="926" y="445"/>
      <point x="926" y="224" type="curve"/>
      <point x="926" y="136"/>
      <point x="891" y="73"/>
      <point x="810" y="73" type="curve"/>
      <point x="728" y="73"/>
      <point x="689" y="136"/>
      <point x="689" y="224" type="curve"/>
      <point x="689" y="337"/>
      <point x="610" y="397"/>
      <point x="493" y="397" type="curve"/>
      <point x="368" y="397"/>
      <point x="284" y="341"/>
      <point x="284" y="225" type="curve"/>
      <point x="284" y="105"/>
      <point x="365" y="41"/>
      <point x="489" y="41" type="curve"/>
      <point x="599" y="41"/>
      <point x="662" y="105"/>
      <point x="684" y="214" type="curve"/>
      <point x="669" y="219"/>
      <point x="684" y="214"/>
      <point x="669" y="219" type="curve"/>
      <point x="640" y="122"/>
      <point x="590" y="63"/>
      <point x="493" y="63" type="curve"/>
      <point x="380" y="63"/>
      <point x="307" y="119"/>
      <point x="307" y="226" type="curve"/>
      <point x="307" y="328"/>
      <point x="383" y="375"/>
      <point x="491" y="375" type="curve"/>
      <point x="596" y="375"/>
      <point x="667" y="324"/>
      <point x="667" y="223" type="curve"/>
      <point x="667" y="123"/>
      <point x="713" y="53"/>
      <point x="808" y="53" type="curve"/>
      <point x="904" y="53"/>
      <point x="949" y="123"/>
      <point x="949" y="225" type="curve"/>
      <point x="949" y="461"/>
      <point x="769" y="568"/>
      <point x="515" y="568" type="curve"/>
      <point x="242" y="568"/>
      <point x="45" y="467"/>
      <point x="45" y="218" type="curve"/>
      <point x="45" y="-30"/>
      <point x="241" y="-133"/>
      <point x="513" y="-133" type="curve"/>
      <point x="602" y="-133"/>
      <point x="661" y="-126"/>
      <point x="743" y="-94" type="curve"/>
    </contour>
  </outline>
</glyph>
<glyph name="A" format="1">
  <advance width="1156"/>
  <unicode hex="0041"/>
  <outline>
    <contour>
      <point x="214" y="22"/>
      <point x="214" y="0"/>
      <point x="214" y="22" type="curve"/>
      <point x="15" y="22"/>
      <point x="214" y="22"/>
      <point x="15" y="22" type="curve"/>
      <point x="15" y="0"/>
      <point x="15" y="22"/>
      <point x="15" y="0" type="curve"/>
      <point x="81" y="0"/>
      <point x="148" y="0"/>
      <point x="214" y="0" type="curve"/>
    </contour>
    <contour>
      <point x="214" y="0"/>
      <point x="214" y="22"/>
      <point x="214" y="0" type="curve"/>
      <point x="282" y="0"/>
      <point x="214" y="0"/>
      <point x="418" y="0" type="curve"/>
      <point x="418" y="22"/>
      <point x="418" y="0"/>
      <point x="418" y="22" type="curve"/>
      <point x="214" y="22"/>
      <point x="418" y="22"/>
      <point x="214" y="22" type="curve"/>
    </contour>
    <contour>
      <point x="952" y="0"/>
      <point x="952" y="22"/>
      <point x="952" y="0" type="curve"/>
      <point x="1019" y="0"/>
      <point x="1085" y="0"/>
      <point x="1151" y="0" type="curve"/>
      <point x="1151" y="22"/>
      <point x="1151" y="0"/>
      <point x="1151" y="22" type="curve"/>
      <point x="952" y="22"/>
      <point x="1151" y="22"/>
      <point x="952" y="22" type="curve"/>
    </contour>
    <contour>
      <point x="952" y="22"/>
      <point x="952" y="0"/>
      <point x="952" y="22" type="curve"/>
      <point x="748" y="22"/>
      <point x="952" y="22"/>
      <point x="748" y="22" type="curve"/>
      <point x="748" y="0"/>
      <point x="748" y="22"/>
      <point x="748" y="0" type="curve"/>
      <point x="816" y="0"/>
      <point x="884" y="0"/>
      <point x="952" y="0" type="curve"/>
    </contour>
    <contour>
      <point x="832" y="277"/>
      <point x="839" y="254"/>
      <point x="832" y="277" type="curve"/>
      <point x="673" y="277"/>
      <point x="514" y="277"/>
      <point x="356" y="277" type="curve"/>
      <point x="346" y="254"/>
      <point x="356" y="277"/>
      <point x="346" y="254" type="curve"/>
      <point x="510" y="254"/>
      <point x="675" y="254"/>
      <point x="839" y="254" type="curve"/>
    </contour>
    <contour>
      <point x="981" y="0"/>
      <point x="955" y="0"/>
      <point x="981" y="0" type="curve"/>
      <point x="859" y="241"/>
      <point x="738" y="481"/>
      <point x="616" y="722" type="curve"/>
      <point x="594" y="722"/>
      <point x="616" y="722"/>
      <point x="594" y="722" type="curve"/>
      <point x="715" y="481"/>
      <point x="835" y="241"/>
      <point x="955" y="0" type="curve"/>
    </contour>
    <contour>
      <point x="211" y="0"/>
      <point x="185" y="0"/>
      <point x="211" y="0" type="curve"/>
      <point x="345" y="241"/>
      <point x="479" y="481"/>
      <point x="614" y="722" type="curve"/>
      <point x="592" y="722"/>
      <point x="614" y="722"/>
      <point x="592" y="722" type="curve"/>
      <point x="456" y="481"/>
      <point x="320" y="241"/>
      <point x="185" y="0" type="curve"/>
    </contour>
  </outline>
</glyph>
<glyph name="E" format="1">
  <advance width="814"/>
  <unicode hex="0045"/>
  <outline>
    <contour>
      <point x="792" y="11"/>
      <point x="771" y="11"/>
      <point x="792" y="11" type="curve"/>
      <point x="792" y="131"/>
      <point x="792" y="11"/>
      <point x="792" y="131" type="curve"/>
      <point x="771" y="131"/>
      <point x="792" y="131"/>
      <point x="771" y="131" type="curve"/>
      <point x="771" y="11"/>
      <point x="771" y="131"/>
      <point x="771" y="11" type="curve"/>
    </contour>
    <contour>
      <point x="725" y="711"/>
      <point x="747" y="711"/>
      <point x="725" y="711" type="curve"/>
      <point x="725" y="591"/>
      <point x="725" y="711"/>
      <point x="725" y="591" type="curve"/>
      <point x="747" y="591"/>
      <point x="725" y="591"/>
      <point x="747" y="591" type="curve"/>
      <point x="747" y="711"/>
      <point x="747" y="591"/>
      <point x="747" y="711" type="curve"/>
    </contour>
    <contour>
      <point x="215" y="22"/>
      <point x="215" y="0"/>
      <point x="215" y="22" type="curve"/>
      <point x="16" y="22"/>
      <point x="215" y="22"/>
      <point x="16" y="22" type="curve"/>
      <point x="16" y="0"/>
      <point x="16" y="22"/>
      <point x="16" y="0" type="curve"/>
      <point x="82" y="0"/>
      <point x="148" y="0"/>
      <point x="215" y="0" type="curve"/>
    </contour>
    <contour>
      <point x="215" y="722"/>
      <point x="215" y="700"/>
      <point x="215" y="722" type="curve"/>
      <point x="148" y="722"/>
      <point x="82" y="722"/>
      <point x="16" y="722" type="curve"/>
      <point x="16" y="700"/>
      <point x="16" y="722"/>
      <point x="16" y="700" type="curve"/>
      <point x="215" y="700"/>
      <point x="16" y="700"/>
      <point x="215" y="700" type="curve"/>
    </contour>
    <contour>
      <point x="219" y="363"/>
      <point x="219" y="385"/>
      <point x="219" y="363" type="curve"/>
      <point x="366" y="363"/>
      <point x="514" y="363"/>
      <point x="662" y="363" type="curve"/>
      <point x="662" y="385"/>
      <point x="662" y="363"/>
      <point x="662" y="385" type="curve"/>
      <point x="514" y="385"/>
      <point x="366" y="385"/>
      <point x="219" y="385" type="curve"/>
    </contour>
    <contour>
      <point x="198" y="700"/>
      <point x="198" y="722"/>
      <point x="198" y="700" type="curve"/>
      <point x="381" y="700"/>
      <point x="564" y="700"/>
      <point x="747" y="700" type="curve"/>
      <point x="747" y="722"/>
      <point x="747" y="700"/>
      <point x="747" y="722" type="curve"/>
      <point x="564" y="722"/>
      <point x="381" y="722"/>
      <point x="198" y="722" type="curve"/>
    </contour>
    <contour>
      <point x="225" y="0"/>
      <point x="201" y="0"/>
      <point x="225" y="0" type="curve"/>
      <point x="225" y="0"/>
      <point x="225" y="722"/>
      <point x="225" y="722" type="curve"/>
      <point x="201" y="722"/>
      <point x="225" y="722"/>
      <point x="201" y="722" type="curve"/>
      <point x="201" y="481"/>
      <point x="201" y="241"/>
      <point x="201" y="0" type="curve"/>
    </contour>
    <contour>
      <point x="198" y="0"/>
      <point x="198" y="22"/>
      <point x="198" y="0" type="curve"/>
      <point x="396" y="0"/>
      <point x="594" y="0"/>
      <point x="792" y="0" type="curve"/>
      <point x="792" y="22"/>
      <point x="792" y="0"/>
      <point x="792" y="22" type="curve"/>
      <point x="594" y="22"/>
      <point x="396" y="22"/>
      <point x="198" y="22" type="curve"/>
    </contour>
  </outline>
</glyph>
<glyph name="F" format="1">
  <advance width="814"/>
  <unicode hex="0046"/>
  <outline>
    <contour>
      <point x="244" y="0"/>
      <point x="244" y="22"/>
      <point x="244" y="0" type="curve"/>
      <point x="310" y="0"/>
      <point x="244" y="0"/>
      <point x="443" y="0" type="curve"/>
      <point x="443" y="22"/>
      <point x="443" y="0"/>
      <point x="443" y="22" type="curve"/>
      <point x="244" y="22"/>
      <point x="443" y="22"/>
      <point x="244" y="22" type="curve"/>
    </contour>
    <contour>
      <point x="244" y="722"/>
      <point x="244" y="700"/>
      <point x="244" y="722" type="curve"/>
      <point x="178" y="722"/>
      <point x="111" y="722"/>
      <point x="45" y="722" type="curve"/>
      <point x="45" y="700"/>
      <point x="45" y="722"/>
      <point x="45" y="700" type="curve"/>
      <point x="244" y="700"/>
      <point x="45" y="700"/>
      <point x="244" y="700" type="curve"/>
    </contour>
    <contour>
      <point x="244" y="22"/>
      <point x="244" y="0"/>
      <point x="244" y="22" type="curve"/>
      <point x="45" y="22"/>
      <point x="244" y="22"/>
      <point x="45" y="22" type="curve"/>
      <point x="45" y="0"/>
      <point x="45" y="22"/>
      <point x="45" y="0" type="curve"/>
      <point x="111" y="0"/>
      <point x="178" y="0"/>
      <point x="244" y="0" type="curve"/>
    </contour>
    <contour>
      <point x="761" y="711"/>
      <point x="783" y="711"/>
      <point x="761" y="711" type="curve"/>
      <point x="761" y="591"/>
      <point x="761" y="711"/>
      <point x="761" y="591" type="curve"/>
      <point x="783" y="591"/>
      <point x="761" y="591"/>
      <point x="783" y="591" type="curve"/>
      <point x="783" y="711"/>
      <point x="783" y="591"/>
      <point x="783" y="711" type="curve"/>
    </contour>
    <contour>
      <point x="249" y="363"/>
      <point x="249" y="385"/>
      <point x="249" y="363" type="curve"/>
      <point x="394" y="363"/>
      <point x="539" y="363"/>
      <point x="684" y="363" type="curve"/>
      <point x="684" y="385"/>
      <point x="684" y="363"/>
      <point x="684" y="385" type="curve"/>
      <point x="539" y="385"/>
      <point x="394" y="385"/>
      <point x="249" y="385" type="curve"/>
    </contour>
    <contour>
      <point x="256" y="0"/>
      <point x="232" y="0"/>
      <point x="256" y="0" type="curve"/>
      <point x="256" y="0"/>
      <point x="256" y="722"/>
      <point x="256" y="722" type="curve"/>
      <point x="232" y="722"/>
      <point x="256" y="722"/>
      <point x="232" y="722" type="curve"/>
      <point x="232" y="481"/>
      <point x="232" y="241"/>
      <point x="232" y="0" type="curve"/>
    </contour>
    <contour>
      <point x="229" y="700"/>
      <point x="229" y="722"/>
      <point x="229" y="700" type="curve"/>
      <point x="413" y="700"/>
      <point x="598" y="700"/>
      <point x="783" y="700" type="curve"/>
      <point x="783" y="722"/>
      <point x="783" y="700"/>
      <point x="783" y="722" type="curve"/>
      <point x="598" y="722"/>
      <point x="413" y="722"/>
      <point x="229" y="722" type="curve"/>
    </contour>
  </outline>
</glyph>
<glyph name="H" format="1">
  <advance width="1117"/>
  <unicode hex="0048"/>
  <outline>
    <contour>
      <point x="906" y="700"/>
      <point x="906" y="722"/>
      <point x="906" y="700" type="curve"/>
      <point x="1105" y="700"/>
      <point x="906" y="700"/>
      <point x="1105" y="700" type="curve"/>
      <point x="1105" y="722"/>
      <point x="1105" y="700"/>
      <point x="1105" y="722" type="curve"/>
      <point x="1039" y="722"/>
      <point x="972" y="722"/>
      <point x="906" y="722" type="curve"/>
    </contour>
    <contour>
      <point x="906" y="0"/>
      <point x="906" y="22"/>
      <point x="906" y="0" type="curve"/>
      <point x="972" y="0"/>
      <point x="1039" y="0"/>
      <point x="1105" y="0" type="curve"/>
      <point x="1105" y="22"/>
      <point x="1105" y="0"/>
      <point x="1105" y="22" type="curve"/>
      <point x="906" y="22"/>
      <point x="1105" y="22"/>
      <point x="906" y="22" type="curve"/>
    </contour>
    <contour>
      <point x="906" y="22"/>
      <point x="906" y="0"/>
      <point x="906" y="22" type="curve"/>
      <point x="707" y="22"/>
      <point x="906" y="22"/>
      <point x="707" y="22" type="curve"/>
      <point x="707" y="0"/>
      <point x="707" y="22"/>
      <point x="707" y="0" type="curve"/>
      <point x="773" y="0"/>
      <point x="840" y="0"/>
      <point x="906" y="0" type="curve"/>
    </contour>
    <contour>
      <point x="906" y="722"/>
      <point x="906" y="700"/>
      <point x="906" y="722" type="curve"/>
      <point x="840" y="722"/>
      <point x="773" y="722"/>
      <point x="707" y="722" type="curve"/>
      <point x="707" y="700"/>
      <point x="707" y="722"/>
      <point x="707" y="700" type="curve"/>
      <point x="906" y="700"/>
      <point x="707" y="700"/>
      <point x="906" y="700" type="curve"/>
    </contour>
    <contour>
      <point x="223" y="700"/>
      <point x="223" y="722"/>
      <point x="223" y="700" type="curve"/>
      <point x="422" y="700"/>
      <point x="223" y="700"/>
      <point x="422" y="700" type="curve"/>
      <point x="422" y="722"/>
      <point x="422" y="700"/>
      <point x="422" y="722" type="curve"/>
      <point x="356" y="722"/>
      <point x="289" y="722"/>
      <point x="223" y="722" type="curve"/>
    </contour>
    <contour>
      <point x="223" y="722"/>
      <point x="223" y="700"/>
      <point x="223" y="722" type="curve"/>
      <point x="157" y="722"/>
      <point x="90" y="722"/>
      <point x="24" y="722" type="curve"/>
      <point x="24" y="700"/>
      <point x="24" y="722"/>
      <point x="24" y="700" type="curve"/>
      <point x="223" y="700"/>
      <point x="24" y="700"/>
      <point x="223" y="700" type="curve"/>
    </contour>
    <contour>
      <point x="223" y="0"/>
      <point x="223" y="22"/>
      <point x="223" y="0" type="curve"/>
      <point x="289" y="0"/>
      <point x="223" y="0"/>
      <point x="422" y="0" type="curve"/>
      <point x="422" y="22"/>
      <point x="422" y="0"/>
      <point x="422" y="22" type="curve"/>
      <point x="223" y="22"/>
      <point x="422" y="22"/>
      <point x="223" y="22" type="curve"/>
    </contour>
    <contour>
      <point x="223" y="22"/>
      <point x="223" y="0"/>
      <point x="223" y="22" type="curve"/>
      <point x="24" y="22"/>
      <point x="223" y="22"/>
      <point x="24" y="22" type="curve"/>
      <point x="24" y="0"/>
      <point x="24" y="22"/>
      <point x="24" y="0" type="curve"/>
      <point x="90" y="0"/>
      <point x="157" y="0"/>
      <point x="223" y="0" type="curve"/>
    </contour>
    <contour>
      <point x="235" y="0"/>
      <point x="211" y="0"/>
      <point x="235" y="0" type="curve"/>
      <point x="235" y="0"/>
      <point x="235" y="722"/>
      <point x="235" y="722" type="curve"/>
      <point x="211" y="722"/>
      <point x="235" y="722"/>
      <point x="211" y="722" type="curve"/>
      <point x="211" y="481"/>
      <point x="211" y="241"/>
      <point x="211" y="0" type="curve"/>
    </contour>
    <contour>
      <point x="902" y="374"/>
      <point x="902" y="352"/>
      <point x="902" y="374" type="curve"/>
      <point x="676" y="374"/>
      <point x="449" y="374"/>
      <point x="223" y="374" type="curve"/>
      <point x="223" y="352"/>
      <point x="223" y="374"/>
      <point x="223" y="352" type="curve"/>
      <point x="449" y="352"/>
      <point x="676" y="352"/>
      <point x="902" y="352" type="curve"/>
    </contour>
    <contour>
      <point x="917" y="1"/>
      <point x="893" y="1"/>
      <point x="917" y="1" type="curve"/>
      <point x="917" y="241"/>
      <point x="917" y="481"/>
      <point x="917" y="721" type="curve"/>
      <point x="893" y="721"/>
      <point x="917" y="721"/>
      <point x="893" y="721" type="curve"/>
      <point x="893" y="721"/>
      <point x="893" y="1"/>
      <point x="893" y="1" type="curve"/>
    </contour>
  </outline>
</glyph>
<glyph name="I" format="1">
  <advance width="431"/>
  <unicode hex="0049"/>
  <outline>
    <contour>
      <point x="218" y="722"/>
      <point x="218" y="700"/>
      <point x="218" y="722" type="curve"/>
      <point x="151" y="722"/>
      <point x="85" y="722"/>
      <point x="19" y="722" type="curve"/>
      <point x="19" y="700"/>
      <point x="19" y="722"/>
      <point x="19" y="700" type="curve"/>
      <point x="218" y="700"/>
      <point x="19" y="700"/>
      <point x="218" y="700" type="curve"/>
    </contour>
    <contour>
      <point x="218" y="700"/>
      <point x="218" y="722"/>
      <point x="218" y="700" type="curve"/>
      <point x="417" y="700"/>
      <point x="218" y="700"/>
      <point x="417" y="700" type="curve"/>
      <point x="417" y="722"/>
      <point x="417" y="700"/>
      <point x="417" y="722" type="curve"/>
      <point x="350" y="722"/>
      <point x="284" y="722"/>
      <point x="218" y="722" type="curve"/>
    </contour>
    <contour>
      <point x="218" y="0"/>
      <point x="218" y="22"/>
      <point x="218" y="0" type="curve"/>
      <point x="284" y="0"/>
      <point x="350" y="0"/>
      <point x="417" y="0" type="curve"/>
      <point x="417" y="22"/>
      <point x="417" y="0"/>
      <point x="417" y="22" type="curve"/>
      <point x="218" y="22"/>
      <point x="417" y="22"/>
      <point x="218" y="22" type="curve"/>
    </contour>
    <contour>
      <point x="218" y="22"/>
      <point x="218" y="0"/>
      <point x="218" y="22" type="curve"/>
      <point x="19" y="22"/>
      <point x="218" y="22"/>
      <point x="19" y="22" type="curve"/>
      <point x="19" y="0"/>
      <point x="19" y="22"/>
      <point x="19" y="0" type="curve"/>
      <point x="85" y="0"/>
      <point x="151" y="0"/>
      <point x="218" y="0" type="curve"/>
    </contour>
    <contour>
      <point x="228" y="0"/>
      <point x="204" y="0"/>
      <point x="228" y="0" type="curve"/>
      <point x="228" y="241"/>
      <point x="228" y="481"/>
      <point x="228" y="722" type="curve"/>
      <point x="204" y="722"/>
      <point x="228" y="722"/>
      <point x="204" y="722" type="curve"/>
      <point x="204" y="481"/>
      <point x="204" y="241"/>
      <point x="204" y="0" type="curve"/>
    </contour>
  </outline>
</glyph>
<glyph name="J" format="1">
  <advance width="638"/>
  <unicode hex="004A"/>
  <outline>
    <contour>
      <point x="425" y="722"/>
      <point x="425" y="700"/>
      <point x="425" y="722" type="curve"/>
      <point x="359" y="722"/>
      <point x="292" y="722"/>
      <point x="226" y="722" type="curve"/>
      <point x="226" y="700"/>
      <point x="226" y="722"/>
      <point x="226" y="700" type="curve"/>
      <point x="425" y="700"/>
      <point x="226" y="700"/>
      <point x="425" y="700" type="curve"/>
    </contour>
    <contour>
      <point x="425" y="700"/>
      <point x="425" y="722"/>
      <point x="425" y="700" type="curve"/>
      <point x="624" y="700"/>
      <point x="425" y="700"/>
      <point x="624" y="700" type="curve"/>
      <point x="624" y="722"/>
      <point x="624" y="700"/>
      <point x="624" y="722" type="curve"/>
      <point x="558" y="722"/>
      <point x="491" y="722"/>
      <point x="425" y="722" type="curve"/>
    </contour>
    <contour>
      <point x="33" y="43"/>
      <point x="44" y="60"/>
      <point x="33" y="43" type="curve"/>
      <point x="71" y="23"/>
      <point x="125" y="0"/>
      <point x="190" y="0" type="curve"/>
      <point x="340" y="0"/>
      <point x="436" y="75"/>
      <point x="436" y="219" type="curve"/>
      <point x="436" y="386"/>
      <point x="436" y="554"/>
      <point x="436" y="722" type="curve"/>
      <point x="411" y="722"/>
      <point x="436" y="722"/>
      <point x="411" y="722" type="curve"/>
      <point x="411" y="554"/>
      <point x="411" y="386"/>
      <point x="411" y="219" type="curve"/>
      <point x="411" y="90"/>
      <point x="324" y="22"/>
      <point x="190" y="22" type="curve"/>
      <point x="132" y="22"/>
      <point x="93" y="39"/>
      <point x="44" y="60" type="curve"/>
    </contour>
  </outline>
</glyph>
<glyph name="K" format="1">
  <advance width="1020"/>
  <unicode hex="004B"/>
  <outline>
    <contour>
      <point x="802" y="22"/>
      <point x="800" y="0"/>
      <point x="802" y="22" type="curve"/>
      <point x="603" y="22"/>
      <point x="802" y="22"/>
      <point x="603" y="22" type="curve"/>
      <point x="603" y="0"/>
      <point x="603" y="22"/>
      <point x="603" y="0" type="curve"/>
      <point x="669" y="0"/>
      <point x="734" y="0"/>
      <point x="800" y="0" type="curve"/>
    </contour>
    <contour>
      <point x="771" y="722"/>
      <point x="771" y="700"/>
      <point x="771" y="722" type="curve"/>
      <point x="704" y="722"/>
      <point x="638" y="722"/>
      <point x="572" y="722" type="curve"/>
      <point x="572" y="700"/>
      <point x="572" y="722"/>
      <point x="572" y="700" type="curve"/>
      <point x="771" y="700"/>
      <point x="572" y="700"/>
      <point x="771" y="700" type="curve"/>
    </contour>
    <contour>
      <point x="802" y="0"/>
      <point x="802" y="22"/>
      <point x="802" y="0" type="curve"/>
      <point x="868" y="0"/>
      <point x="934" y="0"/>
      <point x="1001" y="0" type="curve"/>
      <point x="1001" y="22"/>
      <point x="1001" y="0"/>
      <point x="1001" y="22" type="curve"/>
      <point x="802" y="22"/>
      <point x="1001" y="22"/>
      <point x="802" y="22" type="curve"/>
    </contour>
    <contour>
      <point x="771" y="700"/>
      <point x="771" y="722"/>
      <point x="771" y="700" type="curve"/>
      <point x="970" y="700"/>
      <point x="771" y="700"/>
      <point x="970" y="700" type="curve"/>
      <point x="970" y="722"/>
      <point x="970" y="700"/>
      <point x="970" y="722" type="curve"/>
      <point x="903" y="722"/>
      <point x="837" y="722"/>
      <point x="771" y="722" type="curve"/>
    </contour>
    <contour>
      <point x="228" y="722"/>
      <point x="228" y="700"/>
      <point x="228" y="722" type="curve"/>
      <point x="162" y="722"/>
      <point x="96" y="722"/>
      <point x="29" y="722" type="curve"/>
      <point x="29" y="700"/>
      <point x="29" y="722"/>
      <point x="29" y="700" type="curve"/>
      <point x="228" y="700"/>
      <point x="29" y="700"/>
      <point x="228" y="700" type="curve"/>
    </contour>
    <contour>
      <point x="228" y="700"/>
      <point x="228" y="722"/>
      <point x="228" y="700" type="curve"/>
      <point x="428" y="700"/>
      <point x="228" y="700"/>
      <point x="428" y="700" type="curve"/>
      <point x="428" y="722"/>
      <point x="428" y="700"/>
      <point x="428" y="722" type="curve"/>
      <point x="361" y="722"/>
      <point x="295" y="722"/>
      <point x="228" y="722" type="curve"/>
    </contour>
    <contour>
      <point x="228" y="0"/>
      <point x="228" y="22"/>
      <point x="228" y="0" type="curve"/>
      <point x="295" y="0"/>
      <point x="228" y="0"/>
      <point x="428" y="0" type="curve"/>
      <point x="428" y="22"/>
      <point x="428" y="0"/>
      <point x="428" y="22" type="curve"/>
      <point x="228" y="22"/>
      <point x="428" y="22"/>
      <point x="228" y="22" type="curve"/>
    </contour>
    <contour>
      <point x="228" y="22"/>
      <point x="228" y="0"/>
      <point x="228" y="22" type="curve"/>
      <point x="29" y="22"/>
      <point x="228" y="22"/>
      <point x="29" y="22" type="curve"/>
      <point x="29" y="0"/>
      <point x="29" y="22"/>
      <point x="29" y="0" type="curve"/>
      <point x="96" y="0"/>
      <point x="162" y="0"/>
      <point x="228" y="0" type="curve"/>
    </contour>
    <contour>
      <point x="779" y="722"/>
      <point x="815" y="722"/>
      <point x="775" y="722" type="curve"/>
      <point x="593" y="608"/>
      <point x="410" y="494"/>
      <point x="228" y="380" type="curve"/>
      <point x="262" y="380"/>
      <point x="232" y="380"/>
      <point x="266" y="380" type="curve"/>
      <point x="450" y="494"/>
      <point x="634" y="608"/>
      <point x="819" y="722" type="curve"/>
    </contour>
    <contour>
      <point x="241" y="0"/>
      <point x="216" y="0"/>
      <point x="241" y="0" type="curve"/>
      <point x="241" y="0"/>
      <point x="241" y="722"/>
      <point x="241" y="722" type="curve"/>
      <point x="216" y="722"/>
      <point x="241" y="722"/>
      <point x="216" y="722" type="curve"/>
      <point x="216" y="481"/>
      <point x="216" y="241"/>
      <point x="216" y="0" type="curve"/>
    </contour>
    <contour>
      <point x="847" y="0"/>
      <point x="810" y="0"/>
      <point x="851" y="0" type="curve"/>
      <point x="656" y="126"/>
      <point x="461" y="254"/>
      <point x="266" y="380" type="curve"/>
      <point x="232" y="380"/>
      <point x="262" y="380"/>
      <point x="228" y="380" type="curve"/>
      <point x="420" y="253"/>
      <point x="614" y="127"/>
      <point x="806" y="0" type="curve"/>
    </contour>
  </outline>
</glyph>
<glyph name="L" format="1">
  <advance width="832"/>
  <unicode hex="004C"/>
  <outline>
    <contour>
      <point x="809" y="11"/>
      <point x="787" y="11"/>
      <point x="809" y="11" type="curve"/>
      <point x="809" y="131"/>
      <point x="809" y="11"/>
      <point x="809" y="131" type="curve"/>
      <point x="787" y="131"/>
      <point x="809" y="131"/>
      <point x="787" y="131" type="curve"/>
      <point x="787" y="11"/>
      <point x="787" y="131"/>
      <point x="787" y="11" type="curve"/>
    </contour>
    <contour>
      <point x="239" y="22"/>
      <point x="239" y="0"/>
      <point x="239" y="22" type="curve"/>
      <point x="40" y="22"/>
      <point x="239" y="22"/>
      <point x="40" y="22" type="curve"/>
      <point x="40" y="0"/>
      <point x="40" y="22"/>
      <point x="40" y="0" type="curve"/>
      <point x="106" y="0"/>
      <point x="173" y="0"/>
      <point x="239" y="0" type="curve"/>
    </contour>
    <contour>
      <point x="239" y="722"/>
      <point x="239" y="700"/>
      <point x="239" y="722" type="curve"/>
      <point x="173" y="722"/>
      <point x="106" y="722"/>
      <point x="40" y="722" type="curve"/>
      <point x="40" y="700"/>
      <point x="40" y="722"/>
      <point x="40" y="700" type="curve"/>
      <point x="239" y="700"/>
      <point x="40" y="700"/>
      <point x="239" y="700" type="curve"/>
    </contour>
    <contour>
      <point x="239" y="700"/>
      <point x="239" y="722"/>
      <point x="239" y="700" type="curve"/>
      <point x="438" y="700"/>
      <point x="239" y="700"/>
      <point x="438" y="700" type="curve"/>
      <point x="438" y="722"/>
      <point x="438" y="700"/>
      <point x="438" y="722" type="curve"/>
      <point x="372" y="722"/>
      <point x="305" y="722"/>
      <point x="239" y="722" type="curve"/>
    </contour>
    <contour>
      <point x="253" y="0"/>
      <point x="228" y="0"/>
      <point x="253" y="0" type="curve"/>
      <point x="253" y="241"/>
      <point x="253" y="481"/>
      <point x="253" y="722" type="curve"/>
      <point x="228" y="722"/>
      <point x="253" y="722"/>
      <point x="228" y="722" type="curve"/>
      <point x="228" y="481"/>
      <point x="228" y="241"/>
      <point x="228" y="0" type="curve"/>
    </contour>
    <contour>
      <point x="239" y="0"/>
      <point x="239" y="22"/>
      <point x="239" y="0" type="curve"/>
      <point x="429" y="0"/>
      <point x="619" y="0"/>
      <point x="809" y="0" type="curve"/>
      <point x="809" y="22"/>
      <point x="809" y="0"/>
      <point x="809" y="22" type="curve"/>
      <point x="619" y="22"/>
      <point x="429" y="22"/>
      <point x="239" y="22" type="curve"/>
    </contour>
  </outline>
</glyph>
<glyph name="N" format="1">
  <advance width="1171"/>
  <unicode hex="004E"/>
  <outline>
    <contour>
      <point x="227" y="722"/>
      <point x="227" y="700"/>
      <point x="227" y="722" type="curve"/>
      <point x="161" y="722"/>
      <point x="94" y="722"/>
      <point x="28" y="722" type="curve"/>
      <point x="28" y="700"/>
      <point x="28" y="722"/>
      <point x="28" y="700" type="curve"/>
      <point x="227" y="700"/>
      <point x="28" y="700"/>
      <point x="227" y="700" type="curve"/>
    </contour>
    <contour>
      <point x="956" y="700"/>
      <point x="956" y="722"/>
      <point x="956" y="700" type="curve"/>
      <point x="1155" y="700"/>
      <point x="956" y="700"/>
      <point x="1155" y="700" type="curve"/>
      <point x="1155" y="722"/>
      <point x="1155" y="700"/>
      <point x="1155" y="722" type="curve"/>
      <point x="1089" y="722"/>
      <point x="1022" y="722"/>
      <point x="956" y="722" type="curve"/>
    </contour>
    <contour>
      <point x="956" y="722"/>
      <point x="956" y="700"/>
      <point x="956" y="722" type="curve"/>
      <point x="890" y="722"/>
      <point x="823" y="722"/>
      <point x="757" y="722" type="curve"/>
      <point x="757" y="700"/>
      <point x="757" y="722"/>
      <point x="757" y="700" type="curve"/>
      <point x="956" y="700"/>
      <point x="757" y="700"/>
      <point x="956" y="700" type="curve"/>
    </contour>
    <contour>
      <point x="226" y="22"/>
      <point x="226" y="0"/>
      <point x="226" y="22" type="curve"/>
      <point x="27" y="22"/>
      <point x="226" y="22"/>
      <point x="27" y="22" type="curve"/>
      <point x="26" y="0"/>
      <point x="27" y="22"/>
      <point x="26" y="0" type="curve"/>
      <point x="93" y="0"/>
      <point x="159" y="0"/>
      <point x="226" y="0" type="curve"/>
    </contour>
    <contour>
      <point x="226" y="0"/>
      <point x="226" y="22"/>
      <point x="226" y="0" type="curve"/>
      <point x="292" y="0"/>
      <point x="226" y="0"/>
      <point x="425" y="0" type="curve"/>
      <point x="425" y="22"/>
      <point x="425" y="0"/>
      <point x="425" y="22" type="curve"/>
      <point x="226" y="22"/>
      <point x="425" y="22"/>
      <point x="226" y="22" type="curve"/>
    </contour>
    <contour>
      <point x="962" y="0"/>
      <point x="937" y="0"/>
      <point x="966" y="0" type="curve"/>
      <point x="725" y="241"/>
      <point x="484" y="481"/>
      <point x="244" y="722" type="curve"/>
      <point x="214" y="722"/>
      <point x="240" y="722"/>
      <point x="210" y="722" type="curve"/>
      <point x="451" y="481"/>
      <point x="692" y="241"/>
      <point x="933" y="0" type="curve"/>
    </contour>
    <contour>
      <point x="942" y="722"/>
      <point x="967" y="722"/>
      <point x="942" y="722" type="curve"/>
      <point x="942" y="481"/>
      <point x="942" y="241"/>
      <point x="942" y="0" type="curve"/>
      <point x="967" y="0"/>
      <point x="942" y="0"/>
      <point x="967" y="0" type="curve"/>
      <point x="967" y="241"/>
      <point x="967" y="481"/>
      <point x="967" y="722" type="curve"/>
    </contour>
    <contour>
      <point x="238" y="0"/>
      <point x="213" y="0"/>
      <point x="238" y="0" type="curve"/>
      <point x="238" y="241"/>
      <point x="238" y="481"/>
      <point x="238" y="722" type="curve"/>
      <point x="213" y="722"/>
      <point x="238" y="722"/>
      <point x="213" y="722" type="curve"/>
      <point x="213" y="481"/>
      <point x="213" y="241"/>
      <point x="213" y="0" type="curve"/>
    </contour>
  </outline>
</glyph>
<glyph name="P" format="1">
  <advance width="772"/>
  <unicode hex="0050"/>
  <outline>
    <contour>
      <point x="234" y="722"/>
      <point x="234" y="700"/>
      <point x="234" y="722" type="curve"/>
      <point x="168" y="722"/>
      <point x="101" y="722"/>
      <point x="35" y="722" type="curve"/>
      <point x="35" y="700"/>
      <point x="35" y="722"/>
      <point x="35" y="700" type="curve"/>
      <point x="234" y="700"/>
      <point x="35" y="700"/>
      <point x="234" y="700" type="curve"/>
    </contour>
    <contour>
      <point x="234" y="22"/>
      <point x="234" y="0"/>
      <point x="234" y="22" type="curve"/>
      <point x="35" y="22"/>
      <point x="234" y="22"/>
      <point x="35" y="22" type="curve"/>
      <point x="35" y="0"/>
      <point x="35" y="22"/>
      <point x="35" y="0" type="curve"/>
      <point x="101" y="0"/>
      <point x="168" y="0"/>
      <point x="234" y="0" type="curve"/>
    </contour>
    <contour>
      <point x="234" y="0"/>
      <point x="234" y="22"/>
      <point x="234" y="0" type="curve"/>
      <point x="300" y="0"/>
      <point x="234" y="0"/>
      <point x="433" y="0" type="curve"/>
      <point x="433" y="22"/>
      <point x="433" y="0"/>
      <point x="433" y="22" type="curve"/>
      <point x="234" y="22"/>
      <point x="433" y="22"/>
      <point x="234" y="22" type="curve"/>
    </contour>
    <contour>
      <point x="232" y="326"/>
      <point x="240" y="346"/>
      <point x="232" y="326" type="curve"/>
      <point x="303" y="299"/>
      <point x="367" y="280"/>
      <point x="443" y="280" type="curve"/>
      <point x="606" y="283"/>
      <point x="735" y="347"/>
      <point x="735" y="494" type="curve"/>
      <point x="735" y="654"/>
      <point x="589" y="722"/>
      <point x="410" y="722" type="curve"/>
      <point x="353" y="722"/>
      <point x="295" y="722"/>
      <point x="238" y="722" type="curve"/>
      <point x="238" y="700"/>
      <point x="238" y="722"/>
      <point x="238" y="700" type="curve"/>
      <point x="294" y="700"/>
      <point x="351" y="700"/>
      <point x="407" y="700" type="curve"/>
      <point x="574" y="700"/>
      <point x="710" y="642"/>
      <point x="710" y="493" type="curve"/>
      <point x="710" y="360"/>
      <point x="592" y="302"/>
      <point x="446" y="302" type="curve"/>
      <point x="368" y="302"/>
      <point x="312" y="318"/>
      <point x="240" y="346" type="curve"/>
    </contour>
    <contour>
      <point x="245" y="0"/>
      <point x="220" y="0"/>
      <point x="245" y="0" type="curve"/>
      <point x="245" y="241"/>
      <point x="245" y="481"/>
      <point x="245" y="722" type="curve"/>
      <point x="220" y="722"/>
      <point x="245" y="722"/>
      <point x="220" y="722" type="curve"/>
      <point x="220" y="481"/>
      <point x="220" y="241"/>
      <point x="220" y="0" type="curve"/>
    </contour>
  </outline>
</glyph>
<glyph name="R" format="1">
  <advance width="1046"/>
  <unicode hex="0052"/>
  <outline>
    <contour>
      <point x="832" y="0"/>
      <point x="832" y="22"/>
      <point x="832" y="0" type="curve"/>
      <point x="898" y="0"/>
      <point x="963" y="0"/>
      <point x="1030" y="0" type="curve"/>
      <point x="1030" y="22"/>
      <point x="1030" y="0"/>
      <point x="1030" y="22" type="curve"/>
      <point x="831" y="22"/>
      <point x="1031" y="22"/>
      <point x="832" y="22" type="curve"/>
    </contour>
    <contour>
      <point x="223" y="722"/>
      <point x="223" y="700"/>
      <point x="223" y="722" type="curve"/>
      <point x="157" y="722"/>
      <point x="90" y="722"/>
      <point x="24" y="722" type="curve"/>
      <point x="24" y="700"/>
      <point x="24" y="722"/>
      <point x="24" y="700" type="curve"/>
      <point x="223" y="700"/>
      <point x="24" y="700"/>
      <point x="223" y="700" type="curve"/>
    </contour>
    <contour>
      <point x="223" y="22"/>
      <point x="223" y="0"/>
      <point x="223" y="22" type="curve"/>
      <point x="24" y="22"/>
      <point x="223" y="22"/>
      <point x="24" y="22" type="curve"/>
      <point x="24" y="0"/>
      <point x="24" y="22"/>
      <point x="24" y="0" type="curve"/>
      <point x="90" y="0"/>
      <point x="157" y="0"/>
      <point x="223" y="0" type="curve"/>
    </contour>
    <contour>
      <point x="223" y="0"/>
      <point x="223" y="22"/>
      <point x="223" y="0" type="curve"/>
      <point x="290" y="0"/>
      <point x="223" y="0"/>
      <point x="422" y="0" type="curve"/>
      <point x="422" y="22"/>
      <point x="422" y="0"/>
      <point x="422" y="22" type="curve"/>
      <point x="223" y="22"/>
      <point x="422" y="22"/>
      <point x="223" y="22" type="curve"/>
    </contour>
    <contour>
      <point x="489" y="354"/>
      <point x="516" y="354"/>
      <point x="487" y="354" type="curve"/>
      <point x="602" y="236"/>
      <point x="717" y="118"/>
      <point x="832" y="0" type="curve"/>
      <point x="862" y="0"/>
      <point x="834" y="0"/>
      <point x="864" y="0" type="curve"/>
      <point x="748" y="118"/>
      <point x="633" y="236"/>
      <point x="518" y="354" type="curve"/>
    </contour>
    <contour>
      <point x="237" y="0"/>
      <point x="212" y="0"/>
      <point x="237" y="0" type="curve"/>
      <point x="237" y="241"/>
      <point x="237" y="481"/>
      <point x="237" y="722" type="curve"/>
      <point x="212" y="722"/>
      <point x="237" y="722"/>
      <point x="212" y="722" type="curve"/>
      <point x="212" y="481"/>
      <point x="212" y="241"/>
      <point x="212" y="0" type="curve"/>
    </contour>
    <contour>
      <point x="227" y="340"/>
      <point x="227" y="362"/>
      <point x="227" y="340" type="curve"/>
      <point x="304" y="340"/>
      <point x="381" y="340"/>
      <point x="457" y="340" type="curve"/>
      <point x="624" y="340"/>
      <point x="748" y="389"/>
      <point x="748" y="537" type="curve"/>
      <point x="748" y="679"/>
      <point x="627" y="722"/>
      <point x="467" y="722" type="curve"/>
      <point x="387" y="722"/>
      <point x="307" y="722"/>
      <point x="227" y="722" type="curve"/>
      <point x="227" y="700"/>
      <point x="227" y="722"/>
      <point x="227" y="700" type="curve"/>
      <point x="306" y="700"/>
      <point x="384" y="700"/>
      <point x="463" y="700" type="curve"/>
      <point x="611" y="700"/>
      <point x="724" y="664"/>
      <point x="724" y="535" type="curve"/>
      <point x="724" y="403"/>
      <point x="609" y="362"/>
      <point x="460" y="362" type="curve"/>
      <point x="383" y="362"/>
      <point x="305" y="362"/>
      <point x="227" y="362" type="curve"/>
    </contour>
  </outline>
</glyph>
<glyph name="T" format="1">
  <advance width="897"/>
  <unicode hex="0054"/>
  <outline>
    <contour>
      <point x="35.1" y="710.222222222"/>
      <point x="56.88" y="710.222222222"/>
      <point x="35.1" y="710.222222222" type="curve"/>
      <point x="35.1" y="590.222222222"/>
      <point x="35.1" y="710.222222222"/>
      <point x="35.1" y="590.222222222" type="curve"/>
      <point x="56.88" y="590.222222222"/>
      <point x="35.1" y="590.222222222"/>
      <point x="56.88" y="590.222222222" type="curve"/>
      <point x="56.88" y="710.222222222"/>
      <point x="56.88" y="590.222222222"/>
      <point x="56.88" y="710.222222222" type="curve"/>
    </contour>
    <contour>
      <point x="850.32" y="710.222222222"/>
      <point x="872.1" y="710.222222222"/>
      <point x="850.32" y="710.222222222" type="curve"/>
      <point x="850.32" y="590.222222222"/>
      <point x="850.32" y="710.222222222"/>
      <point x="850.32" y="590.222222222" type="curve"/>
      <point x="872.1" y="590.222222222"/>
      <point x="850.32" y="590.222222222"/>
      <point x="872.1" y="590.222222222" type="curve"/>
      <point x="872.1" y="710.222222222"/>
      <point x="872.1" y="590.222222222"/>
      <point x="872.1" y="710.222222222" type="curve"/>
    </contour>
    <contour>
      <point x="452.25" y="0"/>
      <point x="452.25" y="21.56"/>
      <point x="452.25" y="0" type="curve"/>
      <point x="518.5993365" y="0"/>
      <point x="584.9506635" y="0"/>
      <point x="651.3" y="0" type="curve"/>
      <point x="651.3" y="21.56"/>
      <point x="651.3" y="0"/>
      <point x="651.3" y="21.56" type="curve"/>
      <point x="452.25" y="21.56"/>
      <point x="651.3" y="21.56"/>
      <point x="452.25" y="21.56" type="curve"/>
    </contour>
    <contour>
      <point x="452.25" y="21.56"/>
      <point x="452.25" y="0"/>
      <point x="452.25" y="21.56" type="curve"/>
      <point x="253.2" y="21.56"/>
      <point x="452.25" y="21.56"/>
      <point x="253.2" y="21.56" type="curve"/>
      <point x="253.2" y="0"/>
      <point x="253.2" y="21.56"/>
      <point x="253.2" y="0" type="curve"/>
      <point x="319.5493365" y="-8.12518190498e-15"/>
      <point x="385.9006635" y="8.12518190498e-15"/>
      <point x="452.25" y="0" type="curve"/>
    </contour>
    <contour>
      <point x="465.7" y="0"/>
      <point x="441.5" y="1.45213821436e-15"/>
      <point x="465.7" y="0" type="curve"/>
      <point x="465.7" y="236.6643"/>
      <point x="465.7" y="473.3357"/>
      <point x="465.7" y="710" type="curve"/>
      <point x="441.5" y="710"/>
      <point x="465.7" y="710"/>
      <point x="441.5" y="710" type="curve"/>
      <point x="441.5" y="473.3357"/>
      <point x="441.5" y="236.6643"/>
      <point x="441.5" y="1.45213821436e-15" type="curve"/>
    </contour>
    <contour>
      <point x="35.1" y="698.364222222"/>
      <point x="35.1" y="722.080222222"/>
      <point x="35.1" y="698.364222222" type="curve"/>
      <point x="314.09721" y="698.364222222"/>
      <point x="593.10279" y="698.364222222"/>
      <point x="872.1" y="698.364222222" type="curve"/>
      <point x="872.1" y="722.080222222"/>
      <point x="872.1" y="698.364222222"/>
      <point x="872.1" y="722.080222222" type="curve"/>
      <point x="593.10279" y="722.080222222"/>
      <point x="314.09721" y="722.080222222"/>
      <point x="35.1" y="722.080222222" type="curve"/>
    </contour>
  </outline>
</glyph>
<glyph name="Z" format="1">
  <advance width="851"/>
  <unicode hex="005A"/>
  <outline>
    <contour>
      <point x="89" y="711"/>
      <point x="111" y="711"/>
      <point x="89" y="711" type="curve"/>
      <point x="89" y="591"/>
      <point x="89" y="711"/>
      <point x="89" y="591" type="curve"/>
      <point x="111" y="591"/>
      <point x="89" y="591"/>
      <point x="111" y="591" type="curve"/>
      <point x="111" y="711"/>
      <point x="111" y="591"/>
      <point x="111" y="711" type="curve"/>
    </contour>
    <contour>
      <point x="803" y="11"/>
      <point x="781" y="11"/>
      <point x="803" y="11" type="curve"/>
      <point x="803" y="131"/>
      <point x="803" y="11"/>
      <point x="803" y="131" type="curve"/>
      <point x="781" y="131"/>
      <point x="803" y="131"/>
      <point x="781" y="131" type="curve"/>
      <point x="781" y="11"/>
      <point x="781" y="131"/>
      <point x="781" y="11" type="curve"/>
    </contour>
    <contour>
      <point x="89" y="700"/>
      <point x="89" y="722"/>
      <point x="89" y="700" type="curve"/>
      <point x="307" y="700"/>
      <point x="525" y="700"/>
      <point x="744" y="700" type="curve"/>
      <point x="742" y="703"/>
      <point x="739" y="704"/>
      <point x="737" y="707" type="curve"/>
      <point x="735" y="709"/>
      <point x="733" y="710"/>
      <point x="731" y="712" type="curve"/>
      <point x="728" y="709"/>
      <point x="724" y="705"/>
      <point x="721" y="701" type="curve"/>
      <point x="494" y="474"/>
      <point x="721" y="701"/>
      <point x="37" y="22" type="curve"/>
      <point x="37" y="10"/>
      <point x="37" y="22"/>
      <point x="37" y="10" type="curve"/>
      <point x="37" y="0"/>
      <point x="37" y="10"/>
      <point x="37" y="0" type="curve"/>
      <point x="42" y="0"/>
      <point x="37" y="0"/>
      <point x="42" y="0" type="curve"/>
      <point x="823" y="0"/>
      <point x="543" y="0"/>
      <point x="803" y="0" type="curve"/>
      <point x="803" y="22"/>
      <point x="803" y="0"/>
      <point x="803" y="22" type="curve"/>
      <point x="543" y="22"/>
      <point x="302" y="22"/>
      <point x="42" y="22" type="curve"/>
      <point x="44" y="20"/>
      <point x="46" y="18"/>
      <point x="48" y="16" type="curve"/>
      <point x="50" y="14"/>
      <point x="54" y="12"/>
      <point x="56" y="10" type="curve"/>
      <point x="59" y="13"/>
      <point x="63" y="17"/>
      <point x="67" y="21" type="curve"/>
      <point x="294" y="248"/>
      <point x="67" y="21"/>
      <point x="751" y="700" type="curve"/>
      <point x="751" y="712"/>
      <point x="751" y="700"/>
      <point x="751" y="712" type="curve"/>
      <point x="751" y="722"/>
      <point x="751" y="712"/>
      <point x="751" y="722" type="curve"/>
      <point x="744" y="722"/>
      <point x="751" y="722"/>
      <point x="744" y="722" type="curve"/>
      <point x="525" y="722"/>
      <point x="307" y="722"/>
      <point x="89" y="722" type="curve"/>
    </contour>
  </outline>
</glyph>
<glyph name="bracketleft" format="1">
  <advance width="315"/>
  <unicode hex="005B"/>
  <outline>
    <contour>
      <point x="268" y="771"/>
      <point x="268" y="747"/>
      <point x="268" y="771" type="curve"/>
      <point x="199" y="771"/>
      <point x="130" y="771"/>
      <point x="61" y="771" type="curve"/>
      <point x="60" y="771"/>
      <point x="61" y="771"/>
      <point x="58" y="771" type="curve"/>
      <point x="58" y="769"/>
      <point x="58" y="767"/>
      <point x="58" y="765" type="curve"/>
      <point x="58" y="470"/>
      <point x="58" y="175"/>
      <point x="58" y="-120" type="curve"/>
      <point x="58" y="-121"/>
      <point x="58" y="-123"/>
      <point x="58" y="-124" type="curve"/>
      <point x="59" y="-124"/>
      <point x="59" y="-124"/>
      <point x="60" y="-124" type="curve"/>
      <point x="129" y="-124"/>
      <point x="198" y="-124"/>
      <point x="268" y="-124" type="curve"/>
      <point x="268" y="-100"/>
      <point x="268" y="-124"/>
      <point x="268" y="-100" type="curve"/>
      <point x="198" y="-100"/>
      <point x="129" y="-100"/>
      <point x="60" y="-100" type="curve"/>
      <point x="83" y="-100"/>
      <point x="60" y="-100"/>
      <point x="83" y="-100" type="curve"/>
      <point x="83" y="-120"/>
      <point x="83" y="-100"/>
      <point x="83" y="-120" type="curve"/>
      <point x="83" y="175"/>
      <point x="83" y="470"/>
      <point x="83" y="765" type="curve"/>
      <point x="83" y="747"/>
      <point x="83" y="765"/>
      <point x="83" y="747" type="curve"/>
      <point x="61" y="747"/>
      <point x="83" y="747"/>
      <point x="61" y="747" type="curve"/>
      <point x="130" y="747"/>
      <point x="199" y="747"/>
      <point x="268" y="747" type="curve"/>
    </contour>
  </outline>
</glyph>
<glyph name="a" format="1">
  <advance width="755"/>
  <unicode hex="0061"/>
  <outline>
    <contour>
      <point x="87.775" y="463.943923518"/>
      <point x="109.555" y="463.943923518"/>
      <point x="87.775" y="463.943923518" type="curve"/>
      <point x="87.775" y="343.943923518"/>
      <point x="87.775" y="463.943923518"/>
      <point x="87.775" y="343.943923518" type="curve"/>
      <point x="109.555" y="343.943923518"/>
      <point x="87.775" y="343.943923518"/>
      <point x="109.555" y="343.943923518" type="curve"/>
      <point x="109.555" y="463.943923518"/>
      <point x="109.555" y="343.943923518"/>
      <point x="109.555" y="463.943923518" type="curve"/>
    </contour>
    <contour>
      <point x="565.6" y="0"/>
      <point x="541.4" y="1.45213821436e-15"/>
      <point x="565.6" y="0" type="curve"/>
      <point x="565.6" y="129.884311087"/>
      <point x="565.6" y="259.772518741"/>
      <point x="565.6" y="389.656829828" type="curve"/>
      <point x="565.6" y="513.35634626"/>
      <point x="476" y="538"/>
      <point x="344" y="538" type="curve"/>
      <point x="235" y="538"/>
      <point x="154.052720198" y="507.745569539"/>
      <point x="87.775" y="463.943923518" type="curve"/>
      <point x="96.2870027757" y="446.164105592"/>
      <point x="87.775" y="463.943923518"/>
      <point x="96.2870027757" y="446.164105592" type="curve"/>
      <point x="159.783066652" y="484.840610253"/>
      <point x="237" y="516"/>
      <point x="341" y="516" type="curve"/>
      <point x="461" y="516"/>
      <point x="541.4" y="496.05198339"/>
      <point x="541.4" y="383.188829828" type="curve"/>
      <point x="541.4" y="255.460497181"/>
      <point x="541.4" y="127.728332647"/>
      <point x="541.4" y="1.45213821436e-15" type="curve"/>
    </contour>
    <contour>
      <point x="556.2" y="0"/>
      <point x="556.2" y="21.56"/>
      <point x="556.2" y="0" type="curve"/>
      <point x="618.0493815" y="0"/>
      <point x="679.9006185" y="0"/>
      <point x="741.75" y="0" type="curve"/>
      <point x="741.75" y="21.56"/>
      <point x="741.75" y="0"/>
      <point x="741.75" y="21.56" type="curve"/>
      <point x="556.2" y="21.56"/>
      <point x="741.75" y="21.56"/>
      <point x="556.2" y="21.56" type="curve"/>
    </contour>
    <contour>
      <point x="552.275" y="319.52919883"/>
      <point x="553.375" y="301.20319883"/>
      <point x="552.275" y="319.52919883" type="curve"/>
      <point x="444.134931439" y="308.525046551"/>
      <point x="379.365068561" y="303.655976841"/>
      <point x="271.225" y="292.651824561" type="curve"/>
      <point x="155.41520895" y="280.689512349"/>
      <point x="67.55" y="257.253735577"/>
      <point x="67.55" y="152.267146199" type="curve"/>
      <point x="67.55" y="42.5013094476"/>
      <point x="147.038937112" y="-5.0"/>
      <point x="265.1" y="-5.0" type="curve"/>
      <point x="399.282880421" y="-5.0"/>
      <point x="465.231341295" y="54.7521076454"/>
      <point x="558.875" y="152.899421053" type="curve"/>
      <point x="546.775" y="164.757421053"/>
      <point x="558.875" y="152.899421053"/>
      <point x="546.775" y="164.757421053" type="curve"/>
      <point x="456.3835588" y="76.329365027"/>
      <point x="394.825158033" y="16.56"/>
      <point x="269.5" y="16.56" type="curve"/>
      <point x="163.31894858" y="16.56"/>
      <point x="91.75" y="56.4302238043"/>
      <point x="91.75" y="154.423146199" type="curve"/>
      <point x="91.75" y="245.361818479"/>
      <point x="169.77132751" y="262.936179633"/>
      <point x="270.125" y="273.247824561" type="curve"/>
      <point x="379.399282824" y="284.183442001"/>
      <point x="444.100717176" y="290.267581391"/>
      <point x="553.375" y="301.20319883" type="curve"/>
    </contour>
  </outline>
</glyph>
<glyph name="c" format="1">
  <advance width="711"/>
  <unicode hex="0063"/>
  <outline>
    <contour>
      <point x="587" y="473"/>
      <point x="609" y="473"/>
      <point x="587" y="473" type="curve"/>
      <point x="587" y="353"/>
      <point x="587" y="473"/>
      <point x="587" y="353" type="curve"/>
      <point x="609" y="353"/>
      <point x="587" y="353"/>
      <point x="609" y="353" type="curve"/>
      <point x="609" y="473"/>
      <point x="609" y="353"/>
      <point x="609" y="473" type="curve"/>
    </contour>
    <contour>
      <point x="609" y="473"/>
      <point x="595" y="458"/>
      <point x="609" y="473" type="curve"/>
      <point x="546" y="511"/>
      <point x="470" y="538"/>
      <point x="393" y="538" type="curve"/>
      <point x="205" y="538"/>
      <point x="79" y="450"/>
      <point x="79" y="267" type="curve"/>
      <point x="79" y="84"/>
      <point x="202" y="-5"/>
      <point x="391" y="-5" type="curve"/>
      <point x="476" y="-5"/>
      <point x="561" y="25"/>
      <point x="624" y="82" type="curve"/>
      <point x="607" y="98"/>
      <point x="624" y="82"/>
      <point x="607" y="98" type="curve"/>
      <point x="547" y="43"/>
      <point x="470" y="17"/>
      <point x="391" y="17" type="curve"/>
      <point x="220" y="17"/>
      <point x="103" y="97"/>
      <point x="103" y="267" type="curve"/>
      <point x="103" y="437"/>
      <point x="220" y="516"/>
      <point x="391" y="516" type="curve"/>
      <point x="463" y="516"/>
      <point x="534" y="494"/>
      <point x="595" y="458" type="curve"/>
    </contour>
  </outline>
</glyph>
<glyph name="e" format="1">
  <advance width="706"/>
  <unicode hex="0065"/>
  <outline>
    <contour>
      <point x="96" y="273"/>
      <point x="96" y="295"/>
      <point x="96" y="273" type="curve"/>
      <point x="272" y="273"/>
      <point x="448" y="273"/>
      <point x="624" y="273" type="curve"/>
      <point x="624" y="273"/>
      <point x="624" y="273"/>
      <point x="624" y="273" type="curve"/>
      <point x="624" y="276"/>
      <point x="624" y="273"/>
      <point x="624" y="276" type="curve"/>
      <point x="624" y="285"/>
      <point x="624" y="294"/>
      <point x="624" y="303" type="curve"/>
      <point x="624.0" y="461.369565217"/>
      <point x="521.0" y="538.0"/>
      <point x="361" y="538" type="curve"/>
      <point x="190.0" y="538.0"/>
      <point x="83.0" y="451.313492063"/>
      <point x="83" y="281" type="curve"/>
      <point x="83.0" y="91.6903914591"/>
      <point x="204.0" y="-5.0"/>
      <point x="394" y="-5" type="curve"/>
      <point x="486.0" y="-5.0"/>
      <point x="546.141121561" y="16.5932811814"/>
      <point x="622" y="74" type="curve"/>
      <point x="607" y="90"/>
      <point x="622" y="74"/>
      <point x="607" y="90" type="curve"/>
      <point x="536.165992081" y="37.6444289294"/>
      <point x="480.0" y="17.0"/>
      <point x="394" y="17" type="curve"/>
      <point x="219.0" y="17.0"/>
      <point x="107.0" y="106.698841699"/>
      <point x="107" y="281" type="curve"/>
      <point x="107.0" y="436.304347826"/>
      <point x="204.0" y="516.0"/>
      <point x="359" y="516" type="curve"/>
      <point x="505.0" y="516.0"/>
      <point x="601.0" y="448.398058252"/>
      <point x="601" y="305" type="curve"/>
      <point x="601" y="295"/>
      <point x="601" y="286"/>
      <point x="601" y="276" type="curve"/>
      <point x="605" y="279"/>
      <point x="609" y="282"/>
      <point x="613" y="285" type="curve"/>
      <point x="617" y="288"/>
      <point x="620" y="292"/>
      <point x="624" y="295" type="curve"/>
      <point x="448" y="295"/>
      <point x="272" y="295"/>
      <point x="96" y="295" type="curve"/>
    </contour>
  </outline>
</glyph>
<glyph name="f" format="1">
  <advance width="649"/>
  <unicode hex="0066"/>
  <outline>
    <contour>
      <point x="594" y="772"/>
      <point x="616" y="772"/>
      <point x="594" y="772" type="curve"/>
      <point x="594" y="652"/>
      <point x="594" y="772"/>
      <point x="594" y="652" type="curve"/>
      <point x="616" y="652"/>
      <point x="594" y="652"/>
      <point x="616" y="652" type="curve"/>
      <point x="616" y="772"/>
      <point x="616" y="652"/>
      <point x="616" y="772" type="curve"/>
    </contour>
    <contour>
      <point x="288" y="0"/>
      <point x="288" y="22"/>
      <point x="288" y="0" type="curve"/>
      <point x="354" y="0"/>
      <point x="421" y="0"/>
      <point x="487" y="0" type="curve"/>
      <point x="487" y="22"/>
      <point x="487" y="0"/>
      <point x="487" y="22" type="curve"/>
      <point x="288" y="22"/>
      <point x="487" y="22"/>
      <point x="288" y="22" type="curve"/>
    </contour>
    <contour>
      <point x="288" y="22"/>
      <point x="288" y="0"/>
      <point x="288" y="22" type="curve"/>
      <point x="89" y="22"/>
      <point x="288" y="22"/>
      <point x="89" y="22" type="curve"/>
      <point x="89" y="0"/>
      <point x="89" y="22"/>
      <point x="89" y="0" type="curve"/>
      <point x="155" y="0"/>
      <point x="222" y="0"/>
      <point x="288" y="0" type="curve"/>
    </contour>
    <contour>
      <point x="38" y="487"/>
      <point x="38" y="509"/>
      <point x="38" y="487" type="curve"/>
      <point x="38" y="487"/>
      <point x="607" y="487"/>
      <point x="607" y="487" type="curve"/>
      <point x="607" y="509"/>
      <point x="607" y="487"/>
      <point x="607" y="509" type="curve"/>
      <point x="607" y="509"/>
      <point x="38" y="509"/>
      <point x="38" y="509" type="curve"/>
    </contour>
    <contour>
      <point x="300" y="0"/>
      <point x="276" y="0"/>
      <point x="300" y="0" type="curve"/>
      <point x="300" y="0"/>
      <point x="300" y="640"/>
      <point x="300" y="640" type="curve"/>
      <point x="300" y="735"/>
      <point x="372" y="783"/>
      <point x="473" y="783" type="curve"/>
      <point x="519" y="783"/>
      <point x="564" y="770"/>
      <point x="606" y="755" type="curve"/>
      <point x="616" y="772"/>
      <point x="606" y="755"/>
      <point x="616" y="772" type="curve"/>
      <point x="569.919762774" y="789.408089619"/>
      <point x="521.0" y="805.0"/>
      <point x="473" y="805" type="curve"/>
      <point x="359.0" y="805.0"/>
      <point x="276" y="750"/>
      <point x="276" y="640" type="curve"/>
      <point x="276" y="640"/>
      <point x="276" y="0"/>
      <point x="276" y="0" type="curve"/>
    </contour>
  </outline>
</glyph>
<glyph name="h" format="1">
  <advance width="935"/>
  <unicode hex="0068"/>
  <outline>
    <contour>
      <point x="725" y="0"/>
      <point x="725" y="22"/>
      <point x="725" y="0" type="curve"/>
      <point x="791" y="0"/>
      <point x="858" y="0"/>
      <point x="924" y="0" type="curve"/>
      <point x="924" y="22"/>
      <point x="924" y="0"/>
      <point x="924" y="22" type="curve"/>
      <point x="725" y="22"/>
      <point x="924" y="22"/>
      <point x="725" y="22" type="curve"/>
    </contour>
    <contour>
      <point x="224" y="0"/>
      <point x="224" y="22"/>
      <point x="224" y="0" type="curve"/>
      <point x="286" y="0"/>
      <point x="224" y="0"/>
      <point x="410" y="0" type="curve"/>
      <point x="410" y="22"/>
      <point x="410" y="0"/>
      <point x="410" y="22" type="curve"/>
      <point x="224" y="22"/>
      <point x="410" y="22"/>
      <point x="224" y="22" type="curve"/>
    </contour>
    <contour>
      <point x="224" y="800"/>
      <point x="224" y="778"/>
      <point x="224" y="800" type="curve"/>
      <point x="158" y="800"/>
      <point x="91" y="800"/>
      <point x="25" y="800" type="curve"/>
      <point x="25" y="778"/>
      <point x="25" y="800"/>
      <point x="25" y="778" type="curve"/>
      <point x="224" y="778"/>
      <point x="25" y="778"/>
      <point x="224" y="778" type="curve"/>
    </contour>
    <contour>
      <point x="224" y="22"/>
      <point x="224" y="0"/>
      <point x="224" y="22" type="curve"/>
      <point x="25" y="22"/>
      <point x="224" y="22"/>
      <point x="25" y="22" type="curve"/>
      <point x="25" y="0"/>
      <point x="25" y="22"/>
      <point x="25" y="0" type="curve"/>
      <point x="91" y="0"/>
      <point x="158" y="0"/>
      <point x="224" y="0" type="curve"/>
    </contour>
    <contour>
      <point x="725" y="22"/>
      <point x="725" y="0"/>
      <point x="725" y="22" type="curve"/>
      <point x="539" y="22"/>
      <point x="725" y="22"/>
      <point x="539" y="22" type="curve"/>
      <point x="539" y="0"/>
      <point x="539" y="22"/>
      <point x="539" y="0" type="curve"/>
      <point x="601" y="0"/>
      <point x="663" y="0"/>
      <point x="725" y="0" type="curve"/>
    </contour>
    <contour>
      <point x="231" y="354"/>
      <point x="219" y="365"/>
      <point x="231" y="354" type="curve"/>
      <point x="282.282833755" y="457.591324185"/>
      <point x="393.0" y="516.0"/>
      <point x="508" y="516" type="curve"/>
      <point x="634.0" y="516.0"/>
      <point x="714.0" y="461.441176471"/>
      <point x="714" y="341" type="curve"/>
      <point x="714" y="228"/>
      <point x="714" y="114"/>
      <point x="714" y="0" type="curve"/>
      <point x="738" y="0"/>
      <point x="714" y="0"/>
      <point x="738" y="0" type="curve"/>
      <point x="738" y="115"/>
      <point x="738" y="229"/>
      <point x="738" y="344" type="curve"/>
      <point x="738.0" y="477.439153439"/>
      <point x="650.0" y="538.0"/>
      <point x="511" y="538" type="curve"/>
      <point x="386.0" y="538.0"/>
      <point x="265.158260091" y="480.908519785"/>
      <point x="219" y="365" type="curve"/>
    </contour>
    <contour>
      <point x="236" y="0"/>
      <point x="212" y="0"/>
      <point x="236" y="0" type="curve"/>
      <point x="236" y="267"/>
      <point x="236" y="533"/>
      <point x="236" y="800" type="curve"/>
      <point x="212" y="800"/>
      <point x="236" y="800"/>
      <point x="212" y="800" type="curve"/>
      <point x="212" y="533"/>
      <point x="212" y="267"/>
      <point x="212" y="0" type="curve"/>
    </contour>
  </outline>
</glyph>
<glyph name="i" format="1">
  <advance width="409"/>
  <unicode hex="0069"/>
  <outline>
    <contour>
      <point x="215" y="22"/>
      <point x="215" y="0"/>
      <point x="215" y="22" type="curve"/>
      <point x="16" y="22"/>
      <point x="215" y="22"/>
      <point x="16" y="22" type="curve"/>
      <point x="16" y="0"/>
      <point x="16" y="22"/>
      <point x="16" y="0" type="curve"/>
      <point x="83" y="0"/>
      <point x="149" y="0"/>
      <point x="215" y="0" type="curve"/>
    </contour>
    <contour>
      <point x="215" y="0"/>
      <point x="215" y="22"/>
      <point x="215" y="0" type="curve"/>
      <point x="277" y="0"/>
      <point x="339" y="0"/>
      <point x="401" y="0" type="curve"/>
      <point x="401" y="22"/>
      <point x="401" y="0"/>
      <point x="401" y="22" type="curve"/>
      <point x="215" y="22"/>
      <point x="401" y="22"/>
      <point x="215" y="22" type="curve"/>
    </contour>
    <contour>
      <point x="215" y="533"/>
      <point x="215" y="511"/>
      <point x="215" y="533" type="curve"/>
      <point x="149" y="533"/>
      <point x="83" y="533"/>
      <point x="16" y="533" type="curve"/>
      <point x="16" y="511"/>
      <point x="16" y="533"/>
      <point x="16" y="511" type="curve"/>
      <point x="215" y="511"/>
      <point x="16" y="511"/>
      <point x="215" y="511" type="curve"/>
    </contour>
    <contour>
      <point x="229" y="670"/>
      <point x="200" y="670"/>
      <point x="229" y="670" type="curve"/>
      <point x="229.0" y="679.0"/>
      <point x="222.4375" y="684.0"/>
      <point x="214" y="684" type="curve"/>
      <point x="205.384615385" y="684.0"/>
      <point x="200.0" y="678.0"/>
      <point x="200" y="670" type="curve"/>
      <point x="229" y="670"/>
      <point x="200" y="670"/>
      <point x="229" y="670" type="curve"/>
      <point x="229.0" y="661.0"/>
      <point x="222.4375" y="657.0"/>
      <point x="214" y="657" type="curve"/>
      <point x="205.384615385" y="657.0"/>
      <point x="200.0" y="662.0"/>
      <point x="200" y="670" type="curve"/>
    </contour>
    <contour>
      <point x="229" y="0"/>
      <point x="203" y="0"/>
      <point x="229" y="0" type="curve"/>
      <point x="229" y="178"/>
      <point x="229" y="355"/>
      <point x="229" y="533" type="curve"/>
      <point x="203" y="533"/>
      <point x="229" y="533"/>
      <point x="203" y="533" type="curve"/>
      <point x="203" y="355"/>
      <point x="203" y="178"/>
      <point x="203" y="0" type="curve"/>
    </contour>
  </outline>
</glyph>
<glyph name="l" format="1">
  <advance width="436"/>
  <unicode hex="006C"/>
  <outline>
    <contour>
      <point x="223" y="22"/>
      <point x="223" y="0"/>
      <point x="223" y="22" type="curve"/>
      <point x="24" y="22"/>
      <point x="223" y="22"/>
      <point x="24" y="22" type="curve"/>
      <point x="24" y="0"/>
      <point x="24" y="22"/>
      <point x="24" y="0" type="curve"/>
      <point x="91" y="0"/>
      <point x="157" y="0"/>
      <point x="223" y="0" type="curve"/>
    </contour>
    <contour>
      <point x="226" y="800"/>
      <point x="226" y="778"/>
      <point x="226" y="800" type="curve"/>
      <point x="160" y="800"/>
      <point x="93" y="800"/>
      <point x="27" y="800" type="curve"/>
      <point x="27" y="778"/>
      <point x="27" y="800"/>
      <point x="27" y="778" type="curve"/>
      <point x="226" y="778"/>
      <point x="27" y="778"/>
      <point x="226" y="778" type="curve"/>
    </contour>
    <contour>
      <point x="223" y="0"/>
      <point x="223" y="22"/>
      <point x="223" y="0" type="curve"/>
      <point x="290" y="0"/>
      <point x="356" y="0"/>
      <point x="423" y="0" type="curve"/>
      <point x="423" y="22"/>
      <point x="423" y="0"/>
      <point x="423" y="22" type="curve"/>
      <point x="223" y="22"/>
      <point x="423" y="22"/>
      <point x="223" y="22" type="curve"/>
    </contour>
    <contour>
      <point x="234" y="0"/>
      <point x="210" y="0"/>
      <point x="234" y="0" type="curve"/>
      <point x="234" y="267"/>
      <point x="234" y="533"/>
      <point x="234" y="800" type="curve"/>
      <point x="210" y="800"/>
      <point x="234" y="800"/>
      <point x="210" y="800" type="curve"/>
      <point x="210" y="533"/>
      <point x="210" y="267"/>
      <point x="210" y="0" type="curve"/>
    </contour>
  </outline>
</glyph>
<glyph name="m" format="1">
  <advance width="1339"/>
  <unicode hex="006D"/>
  <outline>
    <contour>
      <point x="666" y="0"/>
      <point x="666" y="22"/>
      <point x="666" y="0" type="curve"/>
      <point x="838" y="0"/>
      <point x="666" y="0"/>
      <point x="838" y="0" type="curve"/>
      <point x="838" y="22"/>
      <point x="838" y="0"/>
      <point x="838" y="22" type="curve"/>
      <point x="666" y="22"/>
      <point x="838" y="22"/>
      <point x="666" y="22" type="curve"/>
    </contour>
    <contour>
      <point x="666" y="22"/>
      <point x="666" y="0"/>
      <point x="666" y="22" type="curve"/>
      <point x="494" y="22"/>
      <point x="666" y="22"/>
      <point x="494" y="22" type="curve"/>
      <point x="494" y="0"/>
      <point x="494" y="22"/>
      <point x="494" y="0" type="curve"/>
      <point x="666" y="0"/>
      <point x="494" y="0"/>
      <point x="666" y="0" type="curve"/>
    </contour>
    <contour>
      <point x="1116" y="0"/>
      <point x="1116" y="22"/>
      <point x="1116" y="0" type="curve"/>
      <point x="1182" y="0"/>
      <point x="1249" y="0"/>
      <point x="1315" y="0" type="curve"/>
      <point x="1315" y="22"/>
      <point x="1315" y="0"/>
      <point x="1315" y="22" type="curve"/>
      <point x="1116" y="22"/>
      <point x="1315" y="22"/>
      <point x="1116" y="22" type="curve"/>
    </contour>
    <contour>
      <point x="218" y="22"/>
      <point x="218" y="0"/>
      <point x="218" y="22" type="curve"/>
      <point x="19" y="22"/>
      <point x="218" y="22"/>
      <point x="19" y="22" type="curve"/>
      <point x="19" y="0"/>
      <point x="19" y="22"/>
      <point x="19" y="0" type="curve"/>
      <point x="85" y="0"/>
      <point x="152" y="0"/>
      <point x="218" y="0" type="curve"/>
    </contour>
    <contour>
      <point x="218" y="0"/>
      <point x="218" y="22"/>
      <point x="218" y="0" type="curve"/>
      <point x="275" y="0"/>
      <point x="218" y="0"/>
      <point x="390" y="0" type="curve"/>
      <point x="390" y="22"/>
      <point x="390" y="0"/>
      <point x="390" y="22" type="curve"/>
      <point x="218" y="22"/>
      <point x="390" y="22"/>
      <point x="218" y="22" type="curve"/>
    </contour>
    <contour>
      <point x="218" y="533"/>
      <point x="218" y="511"/>
      <point x="218" y="533" type="curve"/>
      <point x="152" y="533"/>
      <point x="85" y="533"/>
      <point x="19" y="533" type="curve"/>
      <point x="19" y="511"/>
      <point x="19" y="533"/>
      <point x="19" y="511" type="curve"/>
      <point x="218" y="511"/>
      <point x="19" y="511"/>
      <point x="218" y="511" type="curve"/>
    </contour>
    <contour>
      <point x="1116" y="22"/>
      <point x="1116" y="0"/>
      <point x="1116" y="22" type="curve"/>
      <point x="944" y="22"/>
      <point x="1116" y="22"/>
      <point x="944" y="22" type="curve"/>
      <point x="944" y="0"/>
      <point x="944" y="22"/>
      <point x="944" y="0" type="curve"/>
      <point x="1001" y="0"/>
      <point x="1059" y="0"/>
      <point x="1116" y="0" type="curve"/>
    </contour>
    <contour>
      <point x="673" y="354"/>
      <point x="661" y="365"/>
      <point x="673" y="354" type="curve"/>
      <point x="723.26692886" y="457.611424792"/>
      <point x="809.0" y="516.0"/>
      <point x="921" y="516" type="curve"/>
      <point x="1043.0" y="516.0"/>
      <point x="1102.0" y="463.5"/>
      <point x="1102" y="341" type="curve"/>
      <point x="1102" y="228"/>
      <point x="1102" y="114"/>
      <point x="1102" y="0" type="curve"/>
      <point x="1127" y="0"/>
      <point x="1102" y="0"/>
      <point x="1127" y="0" type="curve"/>
      <point x="1127" y="115"/>
      <point x="1127" y="229"/>
      <point x="1127" y="344" type="curve"/>
      <point x="1127.0" y="478.465608466"/>
      <point x="1061.0" y="538.0"/>
      <point x="926" y="538" type="curve"/>
      <point x="804.0" y="538.0"/>
      <point x="706.136638608" y="479.893261913"/>
      <point x="661" y="365" type="curve"/>
    </contour>
    <contour>
      <point x="225" y="354"/>
      <point x="213" y="365"/>
      <point x="225" y="354" type="curve"/>
      <point x="276.287717495" y="458.626943689"/>
      <point x="360.0" y="516.0"/>
      <point x="472" y="516" type="curve"/>
      <point x="593.0" y="516.0"/>
      <point x="654.0" y="463.5"/>
      <point x="654" y="341" type="curve"/>
      <point x="654" y="228"/>
      <point x="654" y="114"/>
      <point x="654" y="0" type="curve"/>
      <point x="678" y="0"/>
      <point x="654" y="0"/>
      <point x="678" y="0" type="curve"/>
      <point x="678" y="115"/>
      <point x="678" y="229"/>
      <point x="678" y="344" type="curve"/>
      <point x="678.0" y="478.465608466"/>
      <point x="613.0" y="538.0"/>
      <point x="478" y="538" type="curve"/>
      <point x="355.0" y="538.0"/>
      <point x="259.158260091" y="480.908519785"/>
      <point x="213" y="365" type="curve"/>
    </contour>
    <contour>
      <point x="230" y="0"/>
      <point x="206" y="0"/>
      <point x="230" y="0" type="curve"/>
      <point x="230" y="178"/>
      <point x="230" y="355"/>
      <point x="230" y="533" type="curve"/>
      <point x="206" y="533"/>
      <point x="230" y="533"/>
      <point x="206" y="533" type="curve"/>
      <point x="206" y="355"/>
      <point x="206" y="178"/>
      <point x="206" y="0" type="curve"/>
    </contour>
  </outline>
</glyph>
<glyph name="o" format="1">
  <advance width="680"/>
  <unicode hex="006F"/>
  <outline>
    <contour>
      <point x="60" y="268"/>
      <point x="36" y="268"/>
      <point x="60" y="268" type="curve"/>
      <point x="60" y="106"/>
      <point x="170" y="17"/>
      <point x="339" y="17" type="curve"/>
      <point x="506" y="17"/>
      <point x="617" y="104"/>
      <point x="617" y="266" type="curve"/>
      <point x="617" y="429"/>
      <point x="504" y="517"/>
      <point x="334" y="517" type="curve"/>
      <point x="170" y="517"/>
      <point x="60" y="430"/>
      <point x="60" y="268" type="curve"/>
      <point x="36" y="268"/>
      <point x="60" y="268"/>
      <point x="36" y="268" type="curve"/>
      <point x="36" y="441"/>
      <point x="155" y="538"/>
      <point x="335" y="538" type="curve"/>
      <point x="519" y="538"/>
      <point x="642" y="442"/>
      <point x="642" y="266" type="curve"/>
      <point x="642" y="90"/>
      <point x="521" y="-5"/>
      <point x="338" y="-5" type="curve"/>
      <point x="156" y="-5"/>
      <point x="36" y="92"/>
      <point x="36" y="268" type="curve"/>
    </contour>
  </outline>
</glyph>
<glyph name="p" format="1">
  <advance width="828"/>
  <unicode hex="0070"/>
  <outline>
    <contour>
      <point x="227" y="-278"/>
      <point x="227" y="-299"/>
      <point x="227" y="-278" type="curve"/>
      <point x="28" y="-278"/>
      <point x="227" y="-278"/>
      <point x="28" y="-278" type="curve"/>
      <point x="28" y="-299"/>
      <point x="28" y="-278"/>
      <point x="28" y="-299" type="curve"/>
      <point x="95" y="-299"/>
      <point x="161" y="-299"/>
      <point x="227" y="-299" type="curve"/>
    </contour>
    <contour>
      <point x="227" y="-300"/>
      <point x="227" y="-279"/>
      <point x="227" y="-300" type="curve"/>
      <point x="289" y="-300"/>
      <point x="351" y="-300"/>
      <point x="413" y="-300" type="curve"/>
      <point x="413" y="-278"/>
      <point x="413" y="-300"/>
      <point x="413" y="-278" type="curve"/>
      <point x="227" y="-279"/>
      <point x="413" y="-278"/>
      <point x="227" y="-279" type="curve"/>
    </contour>
    <contour>
      <point x="229" y="533"/>
      <point x="229" y="512"/>
      <point x="229" y="533" type="curve"/>
      <point x="162" y="533"/>
      <point x="96" y="533"/>
      <point x="30" y="533" type="curve"/>
      <point x="30" y="511"/>
      <point x="30" y="533"/>
      <point x="30" y="511" type="curve"/>
      <point x="229" y="512"/>
      <point x="30" y="511"/>
      <point x="229" y="512" type="curve"/>
    </contour>
    <contour>
      <point x="233" y="423"/>
      <point x="221" y="437"/>
      <point x="233" y="423" type="curve"/>
      <point x="290" y="476"/>
      <point x="399" y="516"/>
      <point x="515" y="516" type="curve"/>
      <point x="671" y="516"/>
      <point x="782" y="426"/>
      <point x="782" y="276" type="curve"/>
      <point x="786" y="117"/>
      <point x="675" y="15"/>
      <point x="514" y="17" type="curve"/>
      <point x="403" y="17"/>
      <point x="323" y="54"/>
      <point x="235" y="122" type="curve"/>
      <point x="220" y="111"/>
      <point x="235" y="122"/>
      <point x="220" y="111" type="curve"/>
      <point x="311" y="35"/>
      <point x="396" y="-5"/>
      <point x="514" y="-5" type="curve"/>
      <point x="687" y="-5"/>
      <point x="806" y="106"/>
      <point x="805" y="277" type="curve"/>
      <point x="805" y="440"/>
      <point x="683" y="538"/>
      <point x="516" y="538" type="curve"/>
      <point x="395" y="538"/>
      <point x="283" y="495"/>
      <point x="221" y="437" type="curve"/>
    </contour>
    <contour>
      <point x="240" y="-300"/>
      <point x="216" y="-300"/>
      <point x="240" y="-300" type="curve"/>
      <point x="240" y="-22"/>
      <point x="240" y="255"/>
      <point x="240" y="533" type="curve"/>
      <point x="216" y="533"/>
      <point x="240" y="533"/>
      <point x="216" y="533" type="curve"/>
      <point x="216" y="255"/>
      <point x="216" y="-22"/>
      <point x="216" y="-300" type="curve"/>
    </contour>
  </outline>
</glyph>
<glyph name="r" format="1">
  <advance width="568"/>
  <unicode hex="0072"/>
  <outline>
    <contour>
      <point x="223" y="0"/>
      <point x="223" y="22"/>
      <point x="223" y="0" type="curve"/>
      <point x="285" y="0"/>
      <point x="347" y="0"/>
      <point x="409" y="0" type="curve"/>
      <point x="409" y="22"/>
      <point x="409" y="0"/>
      <point x="409" y="22" type="curve"/>
      <point x="223" y="22"/>
      <point x="409" y="22"/>
      <point x="223" y="22" type="curve"/>
    </contour>
    <contour>
      <point x="223" y="22"/>
      <point x="223" y="0"/>
      <point x="223" y="22" type="curve"/>
      <point x="24" y="22"/>
      <point x="223" y="22"/>
      <point x="24" y="22" type="curve"/>
      <point x="24" y="0"/>
      <point x="24" y="22"/>
      <point x="24" y="0" type="curve"/>
      <point x="90" y="0"/>
      <point x="157" y="0"/>
      <point x="223" y="0" type="curve"/>
    </contour>
    <contour>
      <point x="222" y="533"/>
      <point x="222" y="511"/>
      <point x="222" y="533" type="curve"/>
      <point x="155" y="533"/>
      <point x="89" y="533"/>
      <point x="23" y="533" type="curve"/>
      <point x="23" y="511"/>
      <point x="23" y="533"/>
      <point x="23" y="511" type="curve"/>
      <point x="222" y="511"/>
      <point x="23" y="511"/>
      <point x="222" y="511" type="curve"/>
    </contour>
    <contour>
      <point x="235" y="0"/>
      <point x="211" y="0"/>
      <point x="235" y="0" type="curve"/>
      <point x="235" y="178"/>
      <point x="235" y="355"/>
      <point x="235" y="533" type="curve"/>
      <point x="211" y="533"/>
      <point x="235" y="533"/>
      <point x="211" y="533" type="curve"/>
      <point x="211" y="355"/>
      <point x="211" y="178"/>
      <point x="211" y="0" type="curve"/>
    </contour>
    <contour>
      <point x="234.431349948" y="395.016835781"/>
      <point x="217" y="408"/>
      <point x="229" y="392" type="curve"/>
      <point x="316" y="506"/>
      <point x="426.0" y="516.0"/>
      <point x="559" y="516" type="curve"/>
      <point x="559.0" y="538.0"/>
      <point x="559.0" y="516.0"/>
      <point x="559" y="538" type="curve"/>
      <point x="420" y="538"/>
      <point x="299" y="524"/>
      <point x="222" y="411" type="curve"/>
    </contour>
  </outline>
</glyph>
<glyph name="s" format="1">
  <advance width="561"/>
  <unicode hex="0073"/>
  <outline>
    <contour>
      <point x="66" y="52"/>
      <point x="81" y="71"/>
      <point x="68" y="51" type="curve"/>
      <point x="151.044842257" y="19.133955878"/>
      <point x="226.47826087" y="-5.0"/>
      <point x="311" y="-5" type="curve"/>
      <point x="434.0" y="-5.0"/>
      <point x="527.0" y="28.1428571429"/>
      <point x="527" y="140" type="curve"/>
      <point x="526" y="253"/>
      <point x="419" y="259"/>
      <point x="301" y="287" type="curve"/>
      <point x="205.496216019" y="309.116665764"/>
      <point x="121.0" y="329.0"/>
      <point x="121" y="414" type="curve"/>
      <point x="121.0" y="496.0"/>
      <point x="193.436363636" y="516.0"/>
      <point x="287" y="516" type="curve"/>
      <point x="356.0" y="516.0"/>
      <point x="439.809056225" y="494.582802273"/>
      <point x="488" y="471" type="curve"/>
      <point x="499" y="490"/>
      <point x="488" y="471"/>
      <point x="499" y="490" type="curve"/>
      <point x="447.86097856" y="514.546730291"/>
      <point x="360.0" y="538.0"/>
      <point x="288" y="538" type="curve"/>
      <point x="180.430851064" y="538.0"/>
      <point x="99.0" y="511.0"/>
      <point x="99" y="414" type="curve"/>
      <point x="99.0" y="313.0"/>
      <point x="186.479647107" y="291.122724739"/>
      <point x="293" y="266" type="curve"/>
      <point x="400" y="239"/>
      <point x="504" y="238"/>
      <point x="504" y="140" type="curve"/>
      <point x="504.0" y="43.0593220339"/>
      <point x="421.0" y="17.0"/>
      <point x="315" y="17" type="curve"/>
      <point x="232.495934959" y="17.0"/>
      <point x="160.981558855" y="41.1363543134"/>
      <point x="79" y="72" type="curve"/>
    </contour>
    <contour>
      <point x="477" y="490"/>
      <point x="499" y="490"/>
      <point x="477" y="490" type="curve"/>
      <point x="477" y="370"/>
      <point x="477" y="490"/>
      <point x="477" y="370" type="curve"/>
      <point x="499" y="370"/>
      <point x="477" y="370"/>
      <point x="499" y="370" type="curve"/>
      <point x="499" y="490"/>
      <point x="499" y="370"/>
      <point x="499" y="490" type="curve"/>
    </contour>
    <contour>
      <point x="87" y="51"/>
      <point x="66" y="51"/>
      <point x="87" y="51" type="curve"/>
      <point x="87" y="171"/>
      <point x="87" y="51"/>
      <point x="87" y="171" type="curve"/>
      <point x="66" y="171"/>
      <point x="87" y="171"/>
      <point x="66" y="171" type="curve"/>
      <point x="66" y="51"/>
      <point x="66" y="171"/>
      <point x="66" y="51" type="curve"/>
    </contour>
  </outline>
</glyph>
<glyph name="v" format="1">
  <advance width="976"/>
  <unicode hex="0076"/>
  <outline>
    <contour>
      <point x="212" y="533"/>
      <point x="212" y="511"/>
      <point x="212" y="533" type="curve"/>
      <point x="146" y="533"/>
      <point x="79" y="533"/>
      <point x="13" y="533" type="curve"/>
      <point x="13" y="511"/>
      <point x="13" y="533"/>
      <point x="13" y="511" type="curve"/>
      <point x="212" y="511"/>
      <point x="13" y="511"/>
      <point x="212" y="511" type="curve"/>
    </contour>
    <contour>
      <point x="212" y="511"/>
      <point x="212" y="533"/>
      <point x="212" y="511" type="curve"/>
      <point x="411" y="511"/>
      <point x="212" y="511"/>
      <point x="411" y="511" type="curve"/>
      <point x="411" y="533"/>
      <point x="411" y="511"/>
      <point x="411" y="533" type="curve"/>
      <point x="345" y="533"/>
      <point x="279" y="533"/>
      <point x="212" y="533" type="curve"/>
    </contour>
    <contour>
      <point x="764" y="533"/>
      <point x="764" y="511"/>
      <point x="764" y="533" type="curve"/>
      <point x="698" y="533"/>
      <point x="632" y="533"/>
      <point x="565" y="533" type="curve"/>
      <point x="565" y="511"/>
      <point x="565" y="533"/>
      <point x="565" y="511" type="curve"/>
      <point x="764" y="511"/>
      <point x="565" y="511"/>
      <point x="764" y="511" type="curve"/>
    </contour>
    <contour>
      <point x="764" y="511"/>
      <point x="764" y="533"/>
      <point x="764" y="511" type="curve"/>
      <point x="963" y="511"/>
      <point x="764" y="511"/>
      <point x="963" y="511" type="curve"/>
      <point x="963" y="533"/>
      <point x="963" y="511"/>
      <point x="963" y="533" type="curve"/>
      <point x="897" y="533"/>
      <point x="831" y="533"/>
      <point x="764" y="533" type="curve"/>
    </contour>
    <contour>
      <point x="186.0" y="533.0"/>
      <point x="213.0" y="533.0"/>
      <point x="186" y="533" type="curve"/>
      <point x="279" y="355"/>
      <point x="373" y="178"/>
      <point x="466" y="0" type="curve"/>
      <point x="491.0" y="0.0"/>
      <point x="466.0" y="0.0"/>
      <point x="491" y="0" type="curve"/>
      <point x="398" y="178"/>
      <point x="306" y="355"/>
      <point x="213" y="533" type="curve"/>
    </contour>
    <contour>
      <point x="766" y="533"/>
      <point x="791" y="533"/>
      <point x="766" y="533" type="curve"/>
      <point x="766" y="533"/>
      <point x="472" y="0"/>
      <point x="472" y="0" type="curve"/>
      <point x="497" y="0"/>
      <point x="472" y="0"/>
      <point x="497" y="0" type="curve"/>
      <point x="595" y="178"/>
      <point x="693" y="355"/>
      <point x="791" y="533" type="curve"/>
    </contour>
  </outline>
</glyph>
<glyph name="w" format="1">
  <advance width="1461"/>
  <unicode hex="0077"/>
  <outline>
    <contour>
      <point x="1232" y="511"/>
      <point x="1232" y="533"/>
      <point x="1232" y="511" type="curve"/>
      <point x="1431" y="511"/>
      <point x="1232" y="511"/>
      <point x="1431" y="511" type="curve"/>
      <point x="1431" y="533"/>
      <point x="1431" y="511"/>
      <point x="1431" y="533" type="curve"/>
      <point x="1365" y="533"/>
      <point x="1298" y="533"/>
      <point x="1232" y="533" type="curve"/>
    </contour>
    <contour>
      <point x="1232" y="533"/>
      <point x="1232" y="511"/>
      <point x="1232" y="533" type="curve"/>
      <point x="1166" y="533"/>
      <point x="1099" y="533"/>
      <point x="1033" y="533" type="curve"/>
      <point x="1033" y="511"/>
      <point x="1033" y="533"/>
      <point x="1033" y="511" type="curve"/>
      <point x="1232" y="511"/>
      <point x="1033" y="511"/>
      <point x="1232" y="511" type="curve"/>
    </contour>
    <contour>
      <point x="240" y="533"/>
      <point x="240" y="511"/>
      <point x="240" y="533" type="curve"/>
      <point x="174" y="533"/>
      <point x="107" y="533"/>
      <point x="41" y="533" type="curve"/>
      <point x="41" y="511"/>
      <point x="41" y="533"/>
      <point x="41" y="511" type="curve"/>
      <point x="240" y="511"/>
      <point x="41" y="511"/>
      <point x="240" y="511" type="curve"/>
    </contour>
    <contour>
      <point x="240" y="511"/>
      <point x="240" y="533"/>
      <point x="240" y="511" type="curve"/>
      <point x="439" y="511"/>
      <point x="240" y="511"/>
      <point x="439" y="511" type="curve"/>
      <point x="439" y="533"/>
      <point x="439" y="511"/>
      <point x="439" y="533" type="curve"/>
      <point x="373" y="533"/>
      <point x="306" y="533"/>
      <point x="240" y="533" type="curve"/>
    </contour>
    <contour>
      <point x="480" y="0"/>
      <point x="457" y="0"/>
      <point x="480" y="0" type="curve"/>
      <point x="572" y="178"/>
      <point x="663" y="355"/>
      <point x="754" y="533" type="curve"/>
      <point x="728" y="533"/>
      <point x="754" y="533"/>
      <point x="728" y="533" type="curve"/>
      <point x="638" y="355"/>
      <point x="547" y="178"/>
      <point x="457" y="0" type="curve"/>
    </contour>
    <contour>
      <point x="1237" y="533"/>
      <point x="1263" y="533"/>
      <point x="1237" y="533" type="curve"/>
      <point x="1152" y="355"/>
      <point x="1068" y="178"/>
      <point x="984" y="0" type="curve"/>
      <point x="1007" y="0"/>
      <point x="984" y="0"/>
      <point x="1007" y="0" type="curve"/>
      <point x="1092" y="178"/>
      <point x="1177" y="355"/>
      <point x="1263" y="533" type="curve"/>
    </contour>
    <contour>
      <point x="736" y="533"/>
      <point x="761" y="533"/>
      <point x="736" y="533" type="curve"/>
      <point x="818" y="355"/>
      <point x="900" y="178"/>
      <point x="982" y="0" type="curve"/>
      <point x="1005" y="0"/>
      <point x="982" y="0"/>
      <point x="1005" y="0" type="curve"/>
      <point x="924" y="178"/>
      <point x="842" y="355"/>
      <point x="761" y="533" type="curve"/>
    </contour>
    <contour>
      <point x="210" y="533"/>
      <point x="236" y="533"/>
      <point x="210" y="533" type="curve"/>
      <point x="292" y="355"/>
      <point x="374" y="178"/>
      <point x="456" y="0" type="curve"/>
      <point x="479" y="0"/>
      <point x="456" y="0"/>
      <point x="479" y="0" type="curve"/>
      <point x="398" y="178"/>
      <point x="317" y="355"/>
      <point x="236" y="533" type="curve"/>
    </contour>
  </outline>
</glyph>
<glyph name="y" format="1">
  <advance width="998"/>
  <unicode hex="0079"/>
  <outline>
    <contour>
      <point x="261.0" y="-278.0"/>
      <point x="261.0" y="-300.0"/>
      <point x="261" y="-278" type="curve"/>
      <point x="66" y="-278"/>
      <point x="261" y="-278"/>
      <point x="66" y="-278" type="curve"/>
      <point x="66" y="-300"/>
      <point x="66" y="-278"/>
      <point x="66" y="-300" type="curve"/>
      <point x="131.653266332" y="-300.0"/>
      <point x="196" y="-300"/>
      <point x="261" y="-300" type="curve"/>
    </contour>
    <contour>
      <point x="234" y="533"/>
      <point x="234" y="511"/>
      <point x="234" y="533" type="curve"/>
      <point x="168" y="533"/>
      <point x="102" y="533"/>
      <point x="35" y="533" type="curve"/>
      <point x="35" y="511"/>
      <point x="35" y="533"/>
      <point x="35" y="511" type="curve"/>
      <point x="234" y="511"/>
      <point x="35" y="511"/>
      <point x="234" y="511" type="curve"/>
    </contour>
    <contour>
      <point x="234" y="511"/>
      <point x="234" y="533"/>
      <point x="234" y="511" type="curve"/>
      <point x="433" y="511"/>
      <point x="234" y="511"/>
      <point x="433" y="511" type="curve"/>
      <point x="433" y="533"/>
      <point x="433" y="511"/>
      <point x="433" y="533" type="curve"/>
      <point x="367" y="533"/>
      <point x="301" y="533"/>
      <point x="234" y="533" type="curve"/>
    </contour>
    <contour>
      <point x="781" y="533"/>
      <point x="781" y="511"/>
      <point x="781" y="533" type="curve"/>
      <point x="715" y="533"/>
      <point x="648" y="533"/>
      <point x="582" y="533" type="curve"/>
      <point x="582" y="511"/>
      <point x="582" y="533"/>
      <point x="582" y="511" type="curve"/>
      <point x="781" y="511"/>
      <point x="582" y="511"/>
      <point x="781" y="511" type="curve"/>
    </contour>
    <contour>
      <point x="781" y="511"/>
      <point x="781" y="533"/>
      <point x="781" y="511" type="curve"/>
      <point x="980" y="511"/>
      <point x="781" y="511"/>
      <point x="980" y="511" type="curve"/>
      <point x="980" y="533"/>
      <point x="980" y="511"/>
      <point x="980" y="533" type="curve"/>
      <point x="914" y="533"/>
      <point x="847" y="533"/>
      <point x="781" y="533" type="curve"/>
    </contour>
    <contour>
      <point x="508.0" y="72.0"/>
      <point x="485.0" y="77.0"/>
      <point x="508" y="77" type="curve"/>
      <point x="416" y="229"/>
      <point x="324" y="381"/>
      <point x="231" y="533" type="curve"/>
      <point x="204" y="533"/>
      <point x="231" y="533"/>
      <point x="204" y="533" type="curve"/>
      <point x="298.746686483" y="379.792592069"/>
      <point x="390.253313517" y="225.207407931"/>
      <point x="485" y="72" type="curve"/>
    </contour>
    <contour>
      <point x="262" y="-300"/>
      <point x="235" y="-300"/>
      <point x="262" y="-300" type="curve"/>
      <point x="445" y="-22"/>
      <point x="628" y="255"/>
      <point x="811" y="533" type="curve"/>
      <point x="784" y="533"/>
      <point x="811" y="533"/>
      <point x="784" y="533" type="curve"/>
      <point x="601" y="255"/>
      <point x="418" y="-22"/>
      <point x="235" y="-300" type="curve"/>
    </contour>
  </outline>
</glyph>
<glyph name="z" format="1">
  <advance width="689"/>
  <unicode hex="007A"/>
  <outline>
    <contour>
      <point x="87" y="511"/>
      <point x="87" y="533"/>
      <point x="87" y="511" type="curve"/>
      <point x="253" y="511"/>
      <point x="419" y="511"/>
      <point x="585" y="511" type="curve"/>
      <point x="583" y="514"/>
      <point x="580" y="515"/>
      <point x="578" y="518" type="curve"/>
      <point x="576" y="520"/>
      <point x="574" y="521"/>
      <point x="572" y="523" type="curve"/>
      <point x="568" y="520"/>
      <point x="565" y="516"/>
      <point x="561" y="512" type="curve"/>
      <point x="398" y="348"/>
      <point x="561" y="512"/>
      <point x="71" y="22" type="curve"/>
      <point x="71" y="10"/>
      <point x="71" y="22"/>
      <point x="71" y="10" type="curve"/>
      <point x="71" y="0"/>
      <point x="71" y="10"/>
      <point x="71" y="0" type="curve"/>
      <point x="76" y="0"/>
      <point x="71" y="0"/>
      <point x="76" y="0" type="curve"/>
      <point x="621" y="0"/>
      <point x="439" y="0"/>
      <point x="621" y="0" type="curve"/>
      <point x="621" y="22"/>
      <point x="621" y="0"/>
      <point x="621" y="22" type="curve"/>
      <point x="439" y="22"/>
      <point x="257" y="22"/>
      <point x="76" y="22" type="curve"/>
      <point x="78" y="20"/>
      <point x="80" y="18"/>
      <point x="82" y="16" type="curve"/>
      <point x="84" y="14"/>
      <point x="88" y="12"/>
      <point x="90" y="10" type="curve"/>
      <point x="93" y="13"/>
      <point x="97" y="17"/>
      <point x="101" y="21" type="curve"/>
      <point x="264" y="185"/>
      <point x="101" y="21"/>
      <point x="592" y="511" type="curve"/>
      <point x="592" y="523"/>
      <point x="592" y="511"/>
      <point x="592" y="523" type="curve"/>
      <point x="592" y="533"/>
      <point x="592" y="523"/>
      <point x="592" y="533" type="curve"/>
      <point x="585" y="533"/>
      <point x="592" y="533"/>
      <point x="585" y="533" type="curve"/>
      <point x="419" y="533"/>
      <point x="253" y="533"/>
      <point x="87" y="533" type="curve"/>
    </contour>
    <contour>
      <point x="87" y="522"/>
      <point x="109" y="522"/>
      <point x="87" y="522" type="curve"/>
      <point x="87" y="402"/>
      <point x="87" y="522"/>
      <point x="87" y="402" type="curve"/>
      <point x="109" y="402"/>
      <point x="87" y="402"/>
      <point x="109" y="402" type="curve"/>
      <point x="109" y="522"/>
      <point x="109" y="402"/>
      <point x="109" y="522" type="curve"/>
    </contour>
    <contour>
      <point x="621" y="11"/>
      <point x="599" y="11"/>
      <point x="621" y="11" type="curve"/>
      <point x="621" y="131"/>
      <point x="621" y="11"/>
      <point x="621" y="131" type="curve"/>
      <point x="599" y="131"/>
      <point x="621" y="131"/>
      <point x="599" y="131" type="curve"/>
      <point x="599" y="11"/>
      <point x="599" y="131"/>
      <point x="599" y="11" type="curve"/>
    </contour>
  </outline>
</glyph>
<glyph name="dvA" format="1">
  <advance width="1074"/>
  <unicode hex="0905"/>
  <outline>
    <contour>
      <point x="867" y="421"/>
      <point x="875" y="404"/>
      <point x="867" y="421" type="curve"/>
      <point x="689.433689005" y="358.760262125"/>
      <point x="557" y="367"/>
      <point x="373" y="389" type="curve"/>
      <point x="368" y="377"/>
      <point x="373" y="389"/>
      <point x="368" y="377" type="curve"/>
      <point x="534" y="347"/>
      <point x="679.630060777" y="331.19705095"/>
      <point x="875" y="404" type="curve"/>
    </contour>
    <contour>
      <point x="98" y="641"/>
      <point x="84" y="658"/>
      <point x="98" y="641" type="curve"/>
      <point x="173" y="681"/>
      <point x="232" y="705"/>
      <point x="316" y="705" type="curve"/>
      <point x="437" y="705"/>
      <point x="533" y="659"/>
      <point x="532" y="550" type="curve"/>
      <point x="530" y="412"/>
      <point x="387" y="399"/>
      <point x="227" y="399" type="curve"/>
      <point x="227" y="380"/>
      <point x="227" y="399"/>
      <point x="227" y="380" type="curve"/>
      <point x="402" y="380"/>
      <point x="555" y="401"/>
      <point x="555" y="553" type="curve"/>
      <point x="555" y="674"/>
      <point x="452" y="726"/>
      <point x="319" y="726" type="curve"/>
      <point x="227" y="726"/>
      <point x="165" y="702"/>
      <point x="84" y="658" type="curve"/>
    </contour>
    <contour>
      <point x="68" y="122"/>
      <point x="46" y="122"/>
      <point x="68" y="122" type="curve"/>
      <point x="68" y="242"/>
      <point x="68" y="122"/>
      <point x="68" y="242" type="curve"/>
      <point x="46" y="242"/>
      <point x="68" y="242"/>
      <point x="46" y="242" type="curve"/>
      <point x="46" y="122"/>
      <point x="46" y="242"/>
      <point x="46" y="122" type="curve"/>
    </contour>
    <contour>
      <point x="46" y="122"/>
      <point x="62" y="135"/>
      <point x="46" y="122" type="curve"/>
      <point x="116" y="60"/>
      <point x="207" y="32"/>
      <point x="301" y="32" type="curve"/>
      <point x="466" y="27"/>
      <point x="601" y="73"/>
      <point x="598" y="216" type="curve"/>
      <point x="594" y="383"/>
      <point x="420" y="394"/>
      <point x="227" y="394" type="curve"/>
      <point x="227" y="377"/>
      <point x="227" y="394"/>
      <point x="227" y="377" type="curve"/>
      <point x="409" y="377"/>
      <point x="571" y="371"/>
      <point x="575" y="214" type="curve"/>
      <point x="578" y="86"/>
      <point x="454" y="49"/>
      <point x="303" y="53" type="curve"/>
      <point x="213" y="53"/>
      <point x="130" y="78"/>
      <point x="62" y="135" type="curve"/>
    </contour>
    <contour>
      <point x="876.0" y="0.0"/>
      <point x="876.0" y="21.0"/>
      <point x="876" y="0" type="curve"/>
      <point x="933" y="0"/>
      <point x="991" y="0"/>
      <point x="1048" y="0" type="curve"/>
      <point x="1048.0" y="21.0"/>
      <point x="1048.0" y="0.0"/>
      <point x="1048" y="21" type="curve"/>
      <point x="876" y="21"/>
      <point x="1048" y="21"/>
      <point x="876" y="21" type="curve"/>
    </contour>
    <contour>
      <point x="876.0" y="21.0"/>
      <point x="876.0" y="0.0"/>
      <point x="876" y="21" type="curve"/>
      <point x="690" y="21"/>
      <point x="876" y="21"/>
      <point x="690" y="21" type="curve"/>
      <point x="690" y="0"/>
      <point x="690" y="21"/>
      <point x="690" y="0" type="curve"/>
      <point x="752.0" y="0.0"/>
      <point x="814.0" y="0.0"/>
      <point x="876" y="0" type="curve"/>
    </contour>
    <contour>
      <point x="887" y="0"/>
      <point x="864" y="0"/>
      <point x="887" y="0" type="curve"/>
      <point x="887" y="240"/>
      <point x="887.0" y="480.666204986"/>
      <point x="887" y="722" type="curve"/>
      <point x="864" y="722"/>
      <point x="887" y="722"/>
      <point x="864" y="722" type="curve"/>
      <point x="864.0" y="480.666204986"/>
      <point x="864" y="240"/>
      <point x="864" y="0" type="curve"/>
    </contour>
    <contour>
      <point x="864" y="699"/>
      <point x="864" y="722"/>
      <point x="864" y="699" type="curve"/>
      <point x="937" y="699"/>
      <point x="1009" y="699"/>
      <point x="1082" y="699" type="curve"/>
      <point x="1082" y="722"/>
      <point x="1082" y="699"/>
      <point x="1082" y="722" type="curve"/>
      <point x="1009" y="722"/>
      <point x="937" y="722"/>
      <point x="864" y="722" type="curve"/>
    </contour>
  </outline>
</glyph>
<glyph name="dvI" format="1">
  <advance width="758"/>
  <unicode hex="0907"/>
  <outline>
    <contour>
      <point x="-16" y="700"/>
      <point x="-16" y="721"/>
      <point x="-16" y="700" type="curve"/>
      <point x="247" y="700"/>
      <point x="509" y="700"/>
      <point x="772" y="700" type="curve"/>
      <point x="772" y="721"/>
      <point x="772" y="700"/>
      <point x="772" y="721" type="curve"/>
      <point x="509" y="721"/>
      <point x="247" y="721"/>
      <point x="-16" y="721" type="curve"/>
    </contour>
    <contour>
      <point x="200" y="266"/>
      <point x="203" y="292"/>
      <point x="200" y="266" type="curve"/>
      <point x="292" y="298"/>
      <point x="350" y="309"/>
      <point x="447" y="309" type="curve"/>
      <point x="547" y="309"/>
      <point x="624" y="286"/>
      <point x="624" y="193" type="curve"/>
      <point x="624" y="67"/>
      <point x="501" y="52"/>
      <point x="350" y="52" type="curve"/>
      <point x="247" y="52"/>
      <point x="168" y="58"/>
      <point x="135" y="150" type="curve"/>
      <point x="117" y="135"/>
      <point x="135" y="150"/>
      <point x="117" y="135" type="curve"/>
      <point x="148" y="34"/>
      <point x="236" y="30"/>
      <point x="350" y="30" type="curve"/>
      <point x="516" y="30"/>
      <point x="647" y="54"/>
      <point x="647" y="193" type="curve"/>
      <point x="645" y="297"/>
      <point x="563" y="330"/>
      <point x="449" y="330" type="curve"/>
      <point x="353" y="331"/>
      <point x="292" y="323"/>
      <point x="203" y="292" type="curve"/>
    </contour>
    <contour>
      <point x="116" y="135"/>
      <point x="135" y="149"/>
      <point x="116" y="135" type="curve"/>
      <point x="220" y="43"/>
      <point x="324" y="-49"/>
      <point x="428" y="-140" type="curve"/>
      <point x="449" y="-125"/>
      <point x="428" y="-140"/>
      <point x="449" y="-125" type="curve"/>
      <point x="344" y="-33"/>
      <point x="239" y="58"/>
      <point x="135" y="149" type="curve"/>
    </contour>
    <contour>
      <point x="564" y="523"/>
      <point x="541" y="543"/>
      <point x="564" y="523" type="curve"/>
      <point x="564" y="585"/>
      <point x="564" y="647"/>
      <point x="564" y="710" type="curve"/>
      <point x="541" y="710"/>
      <point x="564" y="710"/>
      <point x="541" y="710" type="curve"/>
      <point x="541" y="654"/>
      <point x="541" y="598"/>
      <point x="541" y="543" type="curve"/>
    </contour>
    <contour>
      <point x="541" y="543"/>
      <point x="564" y="523"/>
      <point x="541" y="543" type="curve"/>
      <point x="462" y="543"/>
      <point x="383" y="543"/>
      <point x="305" y="543" type="curve"/>
      <point x="183" y="543"/>
      <point x="84" y="524"/>
      <point x="84" y="417" type="curve"/>
      <point x="84" y="335"/>
      <point x="133" y="298"/>
      <point x="200" y="266" type="curve"/>
      <point x="203" y="292"/>
      <point x="200" y="266"/>
      <point x="203" y="292" type="curve"/>
      <point x="151" y="321"/>
      <point x="107" y="349"/>
      <point x="107" y="417" type="curve"/>
      <point x="107" y="505"/>
      <point x="197" y="523"/>
      <point x="305" y="523" type="curve"/>
      <point x="391" y="523"/>
      <point x="477" y="523"/>
      <point x="564" y="523" type="curve"/>
    </contour>
  </outline>
</glyph>
<glyph name="dvAI" format="1">
  <advance width="777"/>
  <unicode hex="0910"/>
  <outline>
    <contour>
      <point x="476" y="252"/>
      <point x="463" y="270"/>
      <point x="476" y="252" type="curve"/>
      <point x="592" y="306"/>
      <point x="668" y="382"/>
      <point x="668" y="508" type="curve"/>
      <point x="668" y="573"/>
      <point x="668" y="638"/>
      <point x="668" y="703" type="curve"/>
      <point x="645" y="703"/>
      <point x="668" y="703"/>
      <point x="645" y="703" type="curve"/>
      <point x="645" y="637"/>
      <point x="645" y="571"/>
      <point x="645" y="505" type="curve"/>
      <point x="645" y="388"/>
      <point x="570" y="320"/>
      <point x="463" y="270" type="curve"/>
    </contour>
    <contour>
      <point x="813" y="721"/>
      <point x="813" y="700"/>
      <point x="813" y="721" type="curve"/>
      <point x="536" y="721"/>
      <point x="259" y="721"/>
      <point x="-18" y="721" type="curve"/>
      <point x="-18" y="700"/>
      <point x="-18" y="721"/>
      <point x="-18" y="700" type="curve"/>
      <point x="259" y="700"/>
      <point x="536" y="700"/>
      <point x="813" y="700" type="curve"/>
    </contour>
    <contour>
      <point x="593" y="9"/>
      <point x="586" y="-12"/>
      <point x="593" y="9" type="curve"/>
      <point x="351" y="83"/>
      <point x="158" y="192"/>
      <point x="158" y="433" type="curve"/>
      <point x="158" y="525"/>
      <point x="158" y="617"/>
      <point x="158" y="709" type="curve"/>
      <point x="135" y="709"/>
      <point x="158" y="709"/>
      <point x="135" y="709" type="curve"/>
      <point x="135" y="616"/>
      <point x="135" y="522"/>
      <point x="135" y="429" type="curve"/>
      <point x="135" y="179"/>
      <point x="333" y="61"/>
      <point x="586" y="-12" type="curve"/>
    </contour>
    <contour>
      <point x="42" y="1038"/>
      <point x="64" y="1038"/>
      <point x="42" y="1038" type="curve"/>
      <point x="42" y="888"/>
      <point x="185" y="891"/>
      <point x="355" y="874" type="curve"/>
      <point x="515" y="859"/>
      <point x="644" y="851"/>
      <point x="644" y="717" type="curve"/>
      <point x="667" y="717"/>
      <point x="644" y="717"/>
      <point x="667" y="717" type="curve"/>
      <point x="667" y="865"/>
      <point x="531" y="881"/>
      <point x="359" y="896" type="curve"/>
      <point x="200" y="910"/>
      <point x="64" y="909"/>
      <point x="64" y="1038" type="curve"/>
    </contour>
  </outline>
</glyph>
<glyph name="dvO" format="1">
  <advance width="1436"/>
  <unicode hex="0913"/>
  <outline>
    <contour>
      <point x="859" y="420"/>
      <point x="867" y="405"/>
      <point x="859" y="420" type="curve"/>
      <point x="681.481746147" y="358.692149442"/>
      <point x="551" y="367"/>
      <point x="369" y="388" type="curve"/>
      <point x="364" y="376"/>
      <point x="369" y="388"/>
      <point x="364" y="376" type="curve"/>
      <point x="517" y="348"/>
      <point x="685.707415032" y="329.693849321"/>
      <point x="867" y="405" type="curve"/>
    </contour>
    <contour>
      <point x="38" y="122"/>
      <point x="54" y="135"/>
      <point x="38" y="122" type="curve"/>
      <point x="108" y="60"/>
      <point x="199" y="32"/>
      <point x="293" y="32" type="curve"/>
      <point x="458" y="27"/>
      <point x="593" y="71"/>
      <point x="590" y="215" type="curve"/>
      <point x="586" y="382"/>
      <point x="416" y="394"/>
      <point x="219" y="394" type="curve"/>
      <point x="219" y="377"/>
      <point x="219" y="394"/>
      <point x="219" y="377" type="curve"/>
      <point x="401" y="377"/>
      <point x="567" y="362"/>
      <point x="567" y="214" type="curve"/>
      <point x="570" y="86"/>
      <point x="446" y="49"/>
      <point x="295" y="53" type="curve"/>
      <point x="205" y="53"/>
      <point x="122" y="78"/>
      <point x="54" y="135" type="curve"/>
    </contour>
    <contour>
      <point x="60" y="122"/>
      <point x="38" y="122"/>
      <point x="60" y="122" type="curve"/>
      <point x="60" y="242"/>
      <point x="60" y="122"/>
      <point x="60" y="242" type="curve"/>
      <point x="38" y="242"/>
      <point x="60" y="242"/>
      <point x="38" y="242" type="curve"/>
      <point x="38" y="122"/>
      <point x="38" y="242"/>
      <point x="38" y="122" type="curve"/>
    </contour>
    <contour>
      <point x="1455" y="722"/>
      <point x="1455" y="701"/>
      <point x="1455" y="722" type="curve"/>
      <point x="1253.96497373" y="722.0"/>
      <point x="1055.03502627" y="722.0"/>
      <point x="854" y="722" type="curve"/>
      <point x="854" y="701"/>
      <point x="854" y="722"/>
      <point x="854" y="701" type="curve"/>
      <point x="1055.03502627" y="701.0"/>
      <point x="1253.96497373" y="701.0"/>
      <point x="1455" y="701" type="curve"/>
    </contour>
    <contour>
      <point x="868" y="22"/>
      <point x="868" y="1"/>
      <point x="868" y="22" type="curve"/>
      <point x="696" y="22"/>
      <point x="868" y="22"/>
      <point x="696" y="22" type="curve"/>
      <point x="696" y="1"/>
      <point x="696" y="22"/>
      <point x="696" y="1" type="curve"/>
      <point x="753" y="1"/>
      <point x="811" y="1"/>
      <point x="868" y="1" type="curve"/>
    </contour>
    <contour>
      <point x="90" y="641"/>
      <point x="76" y="658"/>
      <point x="90" y="641" type="curve"/>
      <point x="164" y="681"/>
      <point x="224" y="700"/>
      <point x="308" y="700" type="curve"/>
      <point x="428" y="700"/>
      <point x="525" y="658"/>
      <point x="524" y="550" type="curve"/>
      <point x="522" y="412"/>
      <point x="379" y="399"/>
      <point x="219" y="399" type="curve"/>
      <point x="219" y="380"/>
      <point x="219" y="399"/>
      <point x="219" y="380" type="curve"/>
      <point x="394" y="380"/>
      <point x="547" y="401"/>
      <point x="547" y="553" type="curve"/>
      <point x="547" y="672"/>
      <point x="443" y="721"/>
      <point x="311" y="721" type="curve"/>
      <point x="220" y="721"/>
      <point x="156" y="702"/>
      <point x="76" y="658" type="curve"/>
    </contour>
    <contour>
      <point x="868" y="0"/>
      <point x="868" y="21"/>
      <point x="868" y="0" type="curve"/>
      <point x="921" y="0"/>
      <point x="868" y="0"/>
      <point x="1026" y="0" type="curve"/>
      <point x="1026" y="22"/>
      <point x="1026" y="0"/>
      <point x="1026" y="22" type="curve"/>
      <point x="868" y="21"/>
      <point x="1026" y="22"/>
      <point x="868" y="21" type="curve"/>
    </contour>
    <contour>
      <point x="1222" y="722"/>
      <point x="1245" y="722"/>
      <point x="1222" y="722" type="curve"/>
      <point x="1222" y="481"/>
      <point x="1222" y="241"/>
      <point x="1222" y="0" type="curve"/>
      <point x="1245" y="0"/>
      <point x="1222" y="0"/>
      <point x="1245" y="0" type="curve"/>
      <point x="1245" y="241"/>
      <point x="1245" y="481"/>
      <point x="1245" y="722" type="curve"/>
    </contour>
    <contour>
      <point x="854" y="722"/>
      <point x="878" y="722"/>
      <point x="854" y="722" type="curve"/>
      <point x="854" y="481"/>
      <point x="854" y="241"/>
      <point x="854" y="0" type="curve"/>
      <point x="878" y="0"/>
      <point x="854" y="0"/>
      <point x="878" y="0" type="curve"/>
      <point x="878" y="241"/>
      <point x="878" y="481"/>
      <point x="878" y="722" type="curve"/>
    </contour>
    <contour>
      <point x="1236" y="22"/>
      <point x="1236" y="1"/>
      <point x="1236" y="22" type="curve"/>
      <point x="1064" y="22"/>
      <point x="1236" y="22"/>
      <point x="1064" y="22" type="curve"/>
      <point x="1064" y="1"/>
      <point x="1064" y="22"/>
      <point x="1064" y="1" type="curve"/>
      <point x="1122" y="1"/>
      <point x="1179" y="1"/>
      <point x="1236" y="1" type="curve"/>
    </contour>
    <contour>
      <point x="1236" y="0"/>
      <point x="1236" y="21"/>
      <point x="1236" y="0" type="curve"/>
      <point x="1298" y="0"/>
      <point x="1360" y="0"/>
      <point x="1422" y="0" type="curve"/>
      <point x="1422" y="22"/>
      <point x="1422" y="0"/>
      <point x="1422" y="22" type="curve"/>
      <point x="1236" y="21"/>
      <point x="1422" y="22"/>
      <point x="1236" y="21" type="curve"/>
    </contour>
    <contour>
      <point x="670" y="992"/>
      <point x="659" y="1015"/>
      <point x="670" y="992" type="curve"/>
      <point x="729" y="1010"/>
      <point x="776" y="1026"/>
      <point x="839" y="1026" type="curve"/>
      <point x="1031" y="1026"/>
      <point x="1124" y="872"/>
      <point x="1227" y="704" type="curve"/>
      <point x="1248" y="709"/>
      <point x="1227" y="704"/>
      <point x="1248" y="709" type="curve"/>
      <point x="1142" y="888"/>
      <point x="1045" y="1049"/>
      <point x="842" y="1049" type="curve"/>
      <point x="775" y="1049"/>
      <point x="723" y="1035"/>
      <point x="659" y="1015" type="curve"/>
    </contour>
  </outline>
</glyph>
<glyph name="dvCA" format="1">
  <advance width="979"/>
  <unicode hex="091A"/>
  <outline>
    <contour>
      <point x="89.1" y="493.9"/>
      <point x="89.1" y="514.68"/>
      <point x="89.1" y="493.9" type="curve"/>
      <point x="246.1484295" y="493.9"/>
      <point x="403.2015705" y="493.9"/>
      <point x="560.25" y="493.9" type="curve"/>
      <point x="560.25" y="514.68"/>
      <point x="560.25" y="493.9"/>
      <point x="560.25" y="514.68" type="curve"/>
      <point x="403.2015705" y="514.68"/>
      <point x="246.1484295" y="514.68"/>
      <point x="89.1" y="514.68" type="curve"/>
    </contour>
    <contour>
      <point x="781.7" y="710"/>
      <point x="804.8" y="710"/>
      <point x="781.7" y="710" type="curve"/>
      <point x="781.7" y="473.3357"/>
      <point x="781.7" y="236.6643"/>
      <point x="781.7" y="1.45213821436e-15" type="curve"/>
      <point x="804.8" y="-2.69413397841e-15"/>
      <point x="781.7" y="1.45213821436e-15"/>
      <point x="804.8" y="-2.69413397841e-15" type="curve"/>
      <point x="804.8" y="236.6643"/>
      <point x="804.8" y="473.3357"/>
      <point x="804.8" y="710" type="curve"/>
    </contour>
    <contour>
      <point x="785.0" y="299.498777778"/>
      <point x="801.8" y="290.147777778"/>
      <point x="785.0" y="299.498777778" type="curve"/>
      <point x="732.352138772" y="217.588677979"/>
      <point x="636.36842184" y="177.213333333"/>
      <point x="526.25" y="177.213333333" type="curve"/>
      <point x="398.635513498" y="177.213333333"/>
      <point x="299.65" y="212.969711768"/>
      <point x="299.65" y="322.126777778" type="curve"/>
      <point x="299.65" y="450.328845947"/>
      <point x="410.140477991" y="493.980222222"/>
      <point x="560.25" y="493.980222222" type="curve"/>
      <point x="560.25" y="512.682222222"/>
      <point x="560.25" y="493.980222222"/>
      <point x="560.25" y="512.682222222" type="curve"/>
      <point x="394.15901385" y="512.682222222"/>
      <point x="276.55" y="462.72756407"/>
      <point x="276.55" y="321.087777778" type="curve"/>
      <point x="276.55" y="200.953030982"/>
      <point x="385.388821105" y="156.433333333"/>
      <point x="524.15" y="156.433333333" type="curve"/>
      <point x="644.783052488" y="156.433333333"/>
      <point x="747.176122408" y="197.457582108"/>
      <point x="801.8" y="290.147777778" type="curve"/>
    </contour>
    <contour>
      <point x="982.8" y="722"/>
      <point x="982.8" y="701.22"/>
      <point x="982.8" y="722" type="curve"/>
      <point x="649.80333" y="722"/>
      <point x="316.79667" y="722"/>
      <point x="-16.2" y="722" type="curve"/>
      <point x="-16.2" y="701.22"/>
      <point x="-16.2" y="722"/>
      <point x="-16.2" y="701.22" type="curve"/>
      <point x="316.79667" y="701.22"/>
      <point x="649.80333" y="701.22"/>
      <point x="982.8" y="701.22" type="curve"/>
    </contour>
  </outline>
</glyph>
<glyph name="dvTTHA" format="1">
  <advance width="874"/>
  <unicode hex="0920"/>
  <outline>
    <contour>
      <point x="430.7" y="711.22"/>
      <point x="453.8" y="711.22"/>
      <point x="430.7" y="711.22" type="curve"/>
      <point x="430.7" y="645.034735933"/>
      <point x="430.7" y="578.847486289"/>
      <point x="430.7" y="512.662222222" type="curve"/>
      <point x="453.8" y="512.662222222"/>
      <point x="430.7" y="512.662222222"/>
      <point x="453.8" y="512.662222222" type="curve"/>
      <point x="453.8" y="578.847486289"/>
      <point x="453.8" y="645.034735933"/>
      <point x="453.8" y="711.22" type="curve"/>
    </contour>
    <contour>
      <point x="905.85" y="722"/>
      <point x="905.85" y="701.22"/>
      <point x="905.85" y="722" type="curve"/>
      <point x="598.953069" y="722"/>
      <point x="292.046931" y="722"/>
      <point x="-14.85" y="722" type="curve"/>
      <point x="-14.85" y="701.22"/>
      <point x="-14.85" y="722"/>
      <point x="-14.85" y="701.22" type="curve"/>
      <point x="292.046931" y="701.22"/>
      <point x="598.953069" y="701.22"/>
      <point x="905.85" y="701.22" type="curve"/>
    </contour>
    <contour>
      <point x="444.15" y="501.802"/>
      <point x="444.15" y="524.66"/>
      <point x="444.15" y="501.802" type="curve"/>
      <point x="623.205482269" y="501.802"/>
      <point x="753.35" y="439.989809851"/>
      <point x="753.35" y="283.173333333" type="curve"/>
      <point x="753.35" y="121.310906458"/>
      <point x="619.915460284" y="56.4822222222"/>
      <point x="441.45" y="56.4822222222" type="curve"/>
      <point x="259.694566528" y="56.4822222222"/>
      <point x="117.4" y="108.261964187"/>
      <point x="117.4" y="269.204444444" type="curve"/>
      <point x="117.4" y="434.975970449"/>
      <point x="255.208732791" y="501.802"/>
      <point x="444.15" y="501.802" type="curve"/>
      <point x="444.15" y="524.66"/>
      <point x="444.15" y="501.802"/>
      <point x="444.15" y="524.66" type="curve"/>
      <point x="240.662672417" y="524.66"/>
      <point x="94.3" y="449.267266425"/>
      <point x="94.3" y="269.204444444" type="curve"/>
      <point x="94.3" y="93.8504711221"/>
      <point x="244.965124493" y="35.7022222222"/>
      <point x="441.45" y="35.7022222222" type="curve"/>
      <point x="634.683420414" y="35.7022222222"/>
      <point x="776.45" y="106.725401568"/>
      <point x="776.45" y="283.173333333" type="curve"/>
      <point x="776.45" y="453.176763902"/>
      <point x="637.741609536" y="524.66"/>
      <point x="444.15" y="524.66" type="curve"/>
    </contour>
  </outline>
</glyph>
<glyph name="dvTHA" format="1">
  <advance width="914"/>
  <unicode hex="0925"/>
  <outline>
    <contour>
      <point x="719.55" y="0"/>
      <point x="719.55" y="20.78"/>
      <point x="719.55" y="0" type="curve"/>
      <point x="781.3993815" y="0"/>
      <point x="843.2506185" y="0"/>
      <point x="905.1" y="0" type="curve"/>
      <point x="905.1" y="21.56"/>
      <point x="905.1" y="0"/>
      <point x="905.1" y="21.56" type="curve"/>
      <point x="719.55" y="20.78"/>
      <point x="905.1" y="21.56"/>
      <point x="719.55" y="20.78" type="curve"/>
    </contour>
    <contour>
      <point x="719.55" y="21.56"/>
      <point x="719.55" y="0.78"/>
      <point x="719.55" y="21.56" type="curve"/>
      <point x="520.5" y="21.56"/>
      <point x="719.55" y="21.56"/>
      <point x="520.5" y="21.56" type="curve"/>
      <point x="520.5" y="0.78"/>
      <point x="520.5" y="21.56"/>
      <point x="520.5" y="0.78" type="curve"/>
      <point x="586.8493365" y="0.78"/>
      <point x="653.2006635" y="0.78"/>
      <point x="719.55" y="0.78" type="curve"/>
    </contour>
    <contour>
      <point x="708" y="704"/>
      <point x="708" y="719"/>
      <point x="708" y="701" type="curve"/>
      <point x="781" y="701"/>
      <point x="854" y="701"/>
      <point x="927" y="701" type="curve"/>
      <point x="927" y="719"/>
      <point x="927" y="704"/>
      <point x="927" y="722" type="curve"/>
      <point x="854" y="722"/>
      <point x="781" y="722"/>
      <point x="708" y="722" type="curve"/>
    </contour>
    <contour>
      <point x="730.3" y="0"/>
      <point x="707.2" y="1.3470669892e-15"/>
      <point x="730.3" y="0" type="curve"/>
      <point x="730.3" y="240.66426"/>
      <point x="730.3" y="481.33574"/>
      <point x="730.3" y="722" type="curve"/>
      <point x="707.2" y="722"/>
      <point x="730.3" y="722"/>
      <point x="707.2" y="722" type="curve"/>
      <point x="707.2" y="481.33574"/>
      <point x="707.2" y="240.66426"/>
      <point x="707.2" y="1.3470669892e-15" type="curve"/>
    </contour>
    <contour>
      <point x="93.1" y="379.155555556"/>
      <point x="70" y="399.935555556"/>
      <point x="93.1" y="379.155555556" type="curve"/>
      <point x="283.623980132" y="379.155555556"/>
      <point x="459.176665129" y="394.525825719"/>
      <point x="458.95" y="568.537777778" type="curve"/>
      <point x="458.737002103" y="670.514175665"/>
      <point x="390.674877621" y="727"/>
      <point x="284.725" y="727" type="curve"/>
      <point x="195.824742804" y="727"/>
      <point x="129.950430933" y="694.890367339"/>
      <point x="128.3" y="614.355333333" type="curve"/>
      <point x="128.3" y="558.926217735"/>
      <point x="166.155363532" y="531.314797977"/>
      <point x="218.6" y="507.989222222" type="curve"/>
      <point x="229.1" y="525.652222222"/>
      <point x="218.6" y="507.989222222"/>
      <point x="229.1" y="525.652222222" type="curve"/>
      <point x="184.527881281" y="546.809576052"/>
      <point x="151.4" y="568.399393537"/>
      <point x="151.4" y="616.433333333" type="curve"/>
      <point x="153.009574896" y="682.652383101"/>
      <point x="209.284326686" y="706.22"/>
      <point x="283.675" y="706.22" type="curve"/>
      <point x="374.485711537" y="706.22"/>
      <point x="434.532281138" y="656.918282465"/>
      <point x="435.85" y="568.537777778" type="curve"/>
      <point x="437.329682125" y="404.036925355"/>
      <point x="266.423010167" y="399.935555556"/>
      <point x="70" y="399.935555556" type="curve"/>
    </contour>
    <contour>
      <point x="68.9" y="400.715555556"/>
      <point x="92" y="379.935555556"/>
      <point x="68.9" y="400.715555556" type="curve"/>
      <point x="68.9" y="227.553674477"/>
      <point x="203.76176136" y="150.664444444"/>
      <point x="387.825" y="150.664444444" type="curve"/>
      <point x="533.268589982" y="150.664444444"/>
      <point x="638.552680084" y="175.047592005"/>
      <point x="725.775" y="292.870333333" type="curve"/>
      <point x="710.025" y="300.143333333"/>
      <point x="725.775" y="292.870333333"/>
      <point x="710.025" y="300.143333333" type="curve"/>
      <point x="623.739389768" y="194.753706062"/>
      <point x="526.777602877" y="171.444444444"/>
      <point x="390.975" y="171.444444444" type="curve"/>
      <point x="215.736179752" y="171.444444444"/>
      <point x="92.0" y="249.029429183"/>
      <point x="92" y="379.935555556" type="curve"/>
    </contour>
  </outline>
</glyph>
<glyph name="dvBA" format="1">
  <advance width="831"/>
  <unicode hex="092C"/>
  <outline>
    <contour>
      <point x="637.2" y="21.56"/>
      <point x="637.2" y="0.78"/>
      <point x="637.2" y="21.56" type="curve"/>
      <point x="438.15" y="21.56"/>
      <point x="637.2" y="21.56"/>
      <point x="438.15" y="21.56" type="curve"/>
      <point x="438.15" y="0.78"/>
      <point x="438.15" y="21.56"/>
      <point x="438.15" y="0.78" type="curve"/>
      <point x="504.4993365" y="0.78"/>
      <point x="570.8506635" y="0.78"/>
      <point x="637.2" y="0.78" type="curve"/>
    </contour>
    <contour>
      <point x="637.2" y="0"/>
      <point x="637.2" y="20.78"/>
      <point x="637.2" y="0" type="curve"/>
      <point x="699.0493815" y="0"/>
      <point x="760.9006185" y="0"/>
      <point x="822.75" y="0" type="curve"/>
      <point x="822.75" y="21.56"/>
      <point x="822.75" y="0"/>
      <point x="822.75" y="21.56" type="curve"/>
      <point x="637.2" y="20.78"/>
      <point x="822.75" y="21.56"/>
      <point x="637.2" y="20.78" type="curve"/>
    </contour>
    <contour>
      <point x="563.9" y="216.964"/>
      <point x="549.2" y="200.34"/>
      <point x="563.9" y="216.964" type="curve"/>
      <point x="448.209206142" y="311.124270999"/>
      <point x="332.390793858" y="405.134729001"/>
      <point x="216.7" y="499.295" type="curve"/>
      <point x="199.9" y="483.71"/>
      <point x="216.7" y="499.295"/>
      <point x="199.9" y="483.71" type="curve"/>
      <point x="316.380326313" y="389.313655156"/>
      <point x="432.719673687" y="294.736344844"/>
      <point x="549.2" y="200.34" type="curve"/>
    </contour>
    <contour>
      <point x="842.4" y="722"/>
      <point x="842.4" y="701.22"/>
      <point x="842.4" y="722" type="curve"/>
      <point x="556.6528575" y="722"/>
      <point x="270.8971425" y="722"/>
      <point x="-14.85" y="722" type="curve"/>
      <point x="-14.85" y="701.22"/>
      <point x="-14.85" y="722"/>
      <point x="-14.85" y="701.22" type="curve"/>
      <point x="270.8971425" y="701.22"/>
      <point x="556.6528575" y="701.22"/>
      <point x="842.4" y="701.22" type="curve"/>
    </contour>
    <contour>
      <point x="625.1" y="710"/>
      <point x="648.2" y="710"/>
      <point x="625.1" y="710" type="curve"/>
      <point x="625.1" y="473.3357"/>
      <point x="625.1" y="236.6643"/>
      <point x="625.1" y="1.45213821436e-15" type="curve"/>
      <point x="648.2" y="-2.69413397841e-15"/>
      <point x="625.1" y="1.45213821436e-15"/>
      <point x="648.2" y="-2.69413397841e-15" type="curve"/>
      <point x="648.2" y="236.6643"/>
      <point x="648.2" y="473.3357"/>
      <point x="648.2" y="710" type="curve"/>
    </contour>
    <contour>
      <point x="628.275" y="302.452"/>
      <point x="644.025" y="294.14"/>
      <point x="628.275" y="302.452" type="curve"/>
      <point x="576.311040308" y="208.872246796"/>
      <point x="492.951936924" y="167.275666667"/>
      <point x="384.5" y="167.275666667" type="curve"/>
      <point x="243.608187903" y="167.275666667"/>
      <point x="126.975" y="225.204824127"/>
      <point x="126.975" y="353.017777778" type="curve"/>
      <point x="126.975" y="474.430302278"/>
      <point x="241.2922969" y="523.833333333"/>
      <point x="377.025" y="523.833333333" type="curve"/>
      <point x="482.170942483" y="523.833333333"/>
      <point x="562.592881954" y="490.805870906"/>
      <point x="630.35" y="411.325111111" type="curve"/>
      <point x="640.85" y="425.871111111"/>
      <point x="630.35" y="411.325111111"/>
      <point x="640.85" y="425.871111111" type="curve"/>
      <point x="575.059891859" y="512.35294951"/>
      <point x="489.386436578" y="544.613333333"/>
      <point x="380.175" y="544.613333333" type="curve"/>
      <point x="229.698017563" y="544.613333333"/>
      <point x="104.925" y="487.945334494"/>
      <point x="104.925" y="353.017777778" type="curve"/>
      <point x="104.925" y="213.133605869"/>
      <point x="229.084653444" y="145.456666667"/>
      <point x="382.4" y="145.456666667" type="curve"/>
      <point x="499.566363206" y="145.456666667"/>
      <point x="591.459494735" y="190.100534022"/>
      <point x="644.025" y="294.14" type="curve"/>
    </contour>
  </outline>
</glyph>
<glyph name="dvSSA" format="1">
  <advance width="571"/>
  <unicode hex="0937"/>
  <outline>
    <contour>
      <point x="-16.2" y="700.44"/>
      <point x="-16.2" y="721.22"/>
      <point x="-16.2" y="700.44" type="curve"/>
      <point x="251.997318" y="700.44"/>
      <point x="520.202682" y="700.44"/>
      <point x="788.4" y="700.44" type="curve"/>
      <point x="788.4" y="721.22"/>
      <point x="788.4" y="700.44"/>
      <point x="788.4" y="721.22" type="curve"/>
      <point x="520.202682" y="721.22"/>
      <point x="251.997318" y="721.22"/>
      <point x="-16.2" y="721.22" type="curve"/>
    </contour>
    <contour>
      <point x="587.25" y="21.56"/>
      <point x="587.25" y="0.78"/>
      <point x="587.25" y="21.56" type="curve"/>
      <point x="388.2" y="21.56"/>
      <point x="587.25" y="21.56"/>
      <point x="388.2" y="21.56" type="curve"/>
      <point x="388.2" y="0.78"/>
      <point x="388.2" y="21.56"/>
      <point x="388.2" y="0.78" type="curve"/>
      <point x="454.5493365" y="0.78"/>
      <point x="520.9006635" y="0.78"/>
      <point x="587.25" y="0.78" type="curve"/>
    </contour>
    <contour>
      <point x="587.25" y="0"/>
      <point x="587.25" y="20.78"/>
      <point x="587.25" y="0" type="curve"/>
      <point x="649.0993815" y="0"/>
      <point x="710.9506185" y="0"/>
      <point x="772.8" y="0" type="curve"/>
      <point x="772.8" y="21.56"/>
      <point x="772.8" y="0"/>
      <point x="772.8" y="21.56" type="curve"/>
      <point x="587.25" y="20.78"/>
      <point x="772.8" y="21.56"/>
      <point x="587.25" y="20.78" type="curve"/>
    </contour>
    <contour>
      <point x="112.575" y="699.723"/>
      <point x="128.325" y="713.23"/>
      <point x="112.575" y="699.723" type="curve"/>
      <point x="267.812073088" y="578.991919882"/>
      <point x="422.962926912" y="458.140413452"/>
      <point x="578.2" y="337.409333333" type="curve"/>
      <point x="592.9" y="354.033333333"/>
      <point x="578.2" y="337.409333333"/>
      <point x="592.9" y="354.033333333" type="curve"/>
      <point x="438.060613531" y="473.786858998"/>
      <point x="283.164386469" y="593.476474335"/>
      <point x="128.325" y="713.23" type="curve"/>
    </contour>
    <contour>
      <point x="581.025" y="369.303111111"/>
      <point x="596.775" y="360.991111111"/>
      <point x="581.025" y="369.303111111" type="curve"/>
      <point x="527.520735218" y="279.21982072"/>
      <point x="445.610362264" y="260.028888889"/>
      <point x="340.075" y="260.028888889" type="curve"/>
      <point x="219.213902721" y="260.028888889"/>
      <point x="130.9" y="313.784218922"/>
      <point x="130.9" y="423.739666667" type="curve"/>
      <point x="130.9" y="518.900307643"/>
      <point x="130.9" y="614.063803468"/>
      <point x="130.9" y="709.224444444" type="curve"/>
      <point x="107.8" y="709.224444444"/>
      <point x="130.9" y="709.224444444"/>
      <point x="107.8" y="709.224444444" type="curve"/>
      <point x="107.8" y="615.102793078"/>
      <point x="107.8" y="520.978318033"/>
      <point x="107.8" y="426.856666667" type="curve"/>
      <point x="107.8" y="302.56050001"/>
      <point x="206.022151135" y="239.248888889"/>
      <point x="339.025" y="239.248888889" type="curve"/>
      <point x="452.580883385" y="239.248888889"/>
      <point x="541.783606035" y="262.852110429"/>
      <point x="596.775" y="360.991111111" type="curve"/>
    </contour>
    <contour>
      <point x="596.65" y="0"/>
      <point x="573.55" y="1.3470669892e-15"/>
      <point x="596.65" y="0" type="curve"/>
      <point x="596.65" y="236.6643"/>
      <point x="596.65" y="473.3357"/>
      <point x="596.65" y="710" type="curve"/>
      <point x="573.55" y="710"/>
      <point x="596.65" y="710"/>
      <point x="573.55" y="710" type="curve"/>
      <point x="573.55" y="473.3357"/>
      <point x="573.55" y="236.6643"/>
      <point x="573.55" y="1.3470669892e-15" type="curve"/>
    </contour>
  </outline>
</glyph>
<glyph name="dvHA" format="1">
  <advance width="748"/>
  <unicode hex="0939"/>
  <outline>
    <contour>
      <point x="587.95" y="75.1141111111"/>
      <point x="571.15" y="88.6211111111"/>
      <point x="587.95" y="75.1141111111" type="curve"/>
      <point x="631.221506895" y="108.026305208"/>
      <point x="656.05" y="139.568322755"/>
      <point x="656.05" y="193.413444444" type="curve"/>
      <point x="656.05" y="311.530823321"/>
      <point x="537.455609623" y="348.831111111"/>
      <point x="402.3" y="348.831111111" type="curve"/>
      <point x="241.403985445" y="348.831111111"/>
      <point x="108.05" y="284.706621673"/>
      <point x="108.05" y="139.493333333" type="curve"/>
      <point x="108.05" y="-25.8607425874"/>
      <point x="268.923648901" y="-88.7621111111"/>
      <point x="456.55" y="-88.7621111111" type="curve"/>
      <point x="458.65" y="-69.0211111111"/>
      <point x="456.55" y="-88.7621111111"/>
      <point x="458.65" y="-69.0211111111" type="curve"/>
      <point x="282.275538162" y="-69.0211111111"/>
      <point x="131.15" y="-14.8738094999"/>
      <point x="131.15" y="139.493333333" type="curve"/>
      <point x="131.15" y="271.263639774"/>
      <point x="255.018707435" y="328.051111111"/>
      <point x="402.3" y="328.051111111" type="curve"/>
      <point x="523.793991595" y="328.051111111"/>
      <point x="632.95" y="298.38091971"/>
      <point x="632.95" y="192.374444444" type="curve"/>
      <point x="632.95" y="145.905290189"/>
      <point x="608.283402351" y="116.047860539"/>
      <point x="571.15" y="88.6211111111" type="curve"/>
    </contour>
    <contour>
      <point x="758.7" y="722"/>
      <point x="758.7" y="701.22"/>
      <point x="758.7" y="722" type="curve"/>
      <point x="500.402583" y="722"/>
      <point x="242.097417" y="722"/>
      <point x="-16.2" y="722" type="curve"/>
      <point x="-16.2" y="701.22"/>
      <point x="-16.2" y="722"/>
      <point x="-16.2" y="701.22" type="curve"/>
      <point x="242.097417" y="701.22"/>
      <point x="500.402583" y="701.22"/>
      <point x="758.7" y="701.22" type="curve"/>
    </contour>
    <contour>
      <point x="263.95" y="318.657111111"/>
      <point x="247.15" y="304.111111111"/>
      <point x="263.95" y="318.657111111" type="curve"/>
      <point x="198.515845371" y="350.251307323"/>
      <point x="128.2" y="367.022139693"/>
      <point x="128.2" y="436.831111111" type="curve"/>
      <point x="128.2" y="508.877900044"/>
      <point x="206.749969861" y="519.842222222"/>
      <point x="291.225" y="519.842222222" type="curve"/>
      <point x="375.93248625" y="519.842222222"/>
      <point x="460.64251375" y="519.842222222"/>
      <point x="545.35" y="519.842222222" type="curve"/>
      <point x="522.25" y="540.622222222"/>
      <point x="545.35" y="519.842222222"/>
      <point x="522.25" y="540.622222222" type="curve"/>
      <point x="444.19244725" y="540.622222222"/>
      <point x="366.13255275" y="540.622222222"/>
      <point x="288.075" y="540.622222222" type="curve"/>
      <point x="190.975265075" y="540.622222222"/>
      <point x="105.1" y="520.449493239"/>
      <point x="105.1" y="436.831111111" type="curve"/>
      <point x="105.1" y="357.989114635"/>
      <point x="171.539025519" y="336.399804133"/>
      <point x="247.15" y="304.111111111" type="curve"/>
    </contour>
    <contour>
      <point x="521.15" y="710.222222222"/>
      <point x="544.25" y="710.222222222"/>
      <point x="521.15" y="710.222222222" type="curve"/>
      <point x="521.15" y="653.949451622"/>
      <point x="521.15" y="597.674992822"/>
      <point x="521.15" y="541.402222222" type="curve"/>
      <point x="544.25" y="520.622222222"/>
      <point x="521.15" y="541.402222222"/>
      <point x="544.25" y="520.622222222" type="curve"/>
      <point x="544.25" y="583.821590222"/>
      <point x="544.25" y="647.022854222"/>
      <point x="544.25" y="710.222222222" type="curve"/>
    </contour>
  </outline>
</glyph>
<glyph name="dvNukta" format="1">
  <advance width="0"/>
  <unicode hex="093C"/>
  <outline>
    <contour>
      <point x="-393.94" y="-87.0022222222"/>
      <point x="-430.225" y="-87.0022222222"/>
      <point x="-393.94" y="-87.0022222222" type="curve"/>
      <point x="-393.94" y="-77.9434650733"/>
      <point x="-399.987552813" y="-71.9102222222"/>
      <point x="-409.05" y="-71.9102222222" type="curve"/>
      <point x="-419.126518126" y="-71.9102222222"/>
      <point x="-425.51" y="-78.5844190573"/>
      <point x="-425.51" y="-87.0022222222" type="curve"/>
      <point x="-389.225" y="-87.0022222222"/>
      <point x="-425.51" y="-87.0022222222"/>
      <point x="-389.225" y="-87.0022222222" type="curve"/>
      <point x="-389.225" y="-99.9649470636"/>
      <point x="-397.120281322" y="-107.002222222"/>
      <point x="-409.05" y="-107.002222222" type="curve"/>
      <point x="-422.125630252" y="-107.002222222"/>
      <point x="-430.225" y="-99.0381286271"/>
      <point x="-430.225" y="-87.0022222222" type="curve"/>
    </contour>
  </outline>
</glyph>
<glyph name="dvvRR" format="1">
  <advance width="1255"/>
  <unicode hex="0960"/>
  <outline>
    <contour>
      <point x="190" y="169"/>
      <point x="178" y="187"/>
      <point x="190" y="169" type="curve"/>
      <point x="331" y="237"/>
      <point x="472" y="305"/>
      <point x="612" y="373" type="curve"/>
      <point x="600" y="389"/>
      <point x="612" y="373"/>
      <point x="600" y="389" type="curve"/>
      <point x="459" y="322"/>
      <point x="319" y="255"/>
      <point x="178" y="187" type="curve"/>
    </contour>
    <contour>
      <point x="1263" y="722"/>
      <point x="1263" y="701"/>
      <point x="1263" y="722" type="curve"/>
      <point x="846" y="722"/>
      <point x="401" y="722"/>
      <point x="-15" y="722" type="curve"/>
      <point x="-15" y="701"/>
      <point x="-15" y="722"/>
      <point x="-15" y="701" type="curve"/>
      <point x="401" y="701"/>
      <point x="846" y="701"/>
      <point x="1263" y="701" type="curve"/>
    </contour>
    <contour>
      <point x="590" y="366"/>
      <point x="595" y="387"/>
      <point x="590" y="366" type="curve"/>
      <point x="647" y="350"/>
      <point x="687" y="341"/>
      <point x="745" y="341" type="curve"/>
      <point x="854" y="341"/>
      <point x="927" y="392"/>
      <point x="927" y="489" type="curve"/>
      <point x="927" y="537"/>
      <point x="882" y="561"/>
      <point x="836" y="555" type="curve"/>
      <point x="822" y="541"/>
      <point x="836" y="555"/>
      <point x="822" y="541" type="curve"/>
      <point x="862" y="526"/>
      <point x="906" y="496"/>
      <point x="906" y="484" type="curve"/>
      <point x="906" y="404"/>
      <point x="836" y="362"/>
      <point x="746" y="362" type="curve"/>
      <point x="689" y="362"/>
      <point x="651" y="372"/>
      <point x="595" y="387" type="curve"/>
    </contour>
    <contour>
      <point x="99" y="466"/>
      <point x="86" y="482"/>
      <point x="99" y="466" type="curve"/>
      <point x="162" y="501"/>
      <point x="211" y="523"/>
      <point x="282" y="523" type="curve"/>
      <point x="409" y="523"/>
      <point x="526" y="413"/>
      <point x="603" y="361" type="curve"/>
      <point x="612" y="381"/>
      <point x="603" y="361"/>
      <point x="612" y="381" type="curve"/>
      <point x="539" y="436"/>
      <point x="421" y="544"/>
      <point x="284" y="544" type="curve"/>
      <point x="205" y="544"/>
      <point x="153" y="522"/>
      <point x="86" y="482" type="curve"/>
    </contour>
    <contour>
      <point x="592" y="711"/>
      <point x="615" y="711"/>
      <point x="592" y="711" type="curve"/>
      <point x="592" y="474"/>
      <point x="592" y="237"/>
      <point x="592" y="0" type="curve"/>
      <point x="615" y="0"/>
      <point x="592" y="0"/>
      <point x="615" y="0" type="curve"/>
      <point x="615" y="237"/>
      <point x="615" y="474"/>
      <point x="615" y="711" type="curve"/>
    </contour>
    <contour>
      <point x="1218" y="117"/>
      <point x="1233" y="103"/>
      <point x="1218" y="117" type="curve"/>
      <point x="1180" y="85"/>
      <point x="1136" y="63"/>
      <point x="1082" y="63" type="curve"/>
      <point x="1006" y="63"/>
      <point x="935" y="97"/>
      <point x="937" y="176" type="curve"/>
      <point x="939" y="252"/>
      <point x="1029" y="286"/>
      <point x="1094" y="296" type="curve"/>
      <point x="1101" y="318"/>
      <point x="1094" y="296"/>
      <point x="1101" y="318" type="curve"/>
      <point x="1005" y="304"/>
      <point x="914" y="262"/>
      <point x="913" y="174" type="curve"/>
      <point x="913" y="83"/>
      <point x="993" y="43"/>
      <point x="1081" y="43" type="curve"/>
      <point x="1140" y="43"/>
      <point x="1192" y="67"/>
      <point x="1233" y="103" type="curve"/>
    </contour>
    <contour>
      <point x="821" y="540"/>
      <point x="836" y="555"/>
      <point x="821" y="540" type="curve"/>
      <point x="912" y="459"/>
      <point x="1003" y="377"/>
      <point x="1094" y="296" type="curve"/>
      <point x="1101" y="318"/>
      <point x="1094" y="296"/>
      <point x="1101" y="318" type="curve"/>
      <point x="1013" y="397"/>
      <point x="924" y="476"/>
      <point x="836" y="555" type="curve"/>
    </contour>
  </outline>
</glyph>
<glyph name="dvvLL" format="1">
  <advance width="1066"/>
  <unicode hex="0961"/>
  <outline>
    <contour>
      <point x="1028.975" y="-231.955777778"/>
      <point x="1042.625" y="-250.657777778"/>
      <point x="1028.975" y="-231.955777778" type="curve"/>
      <point x="971.406149691" y="-268.192525813"/>
      <point x="920.535686384" y="-287.751111111"/>
      <point x="853.075" y="-287.751111111" type="curve"/>
      <point x="766.706726338" y="-287.751111111"/>
      <point x="689.886004347" y="-265.816621868"/>
      <point x="691.275" y="-190.610666667" type="curve"/>
      <point x="692.549028236" y="-147.923784676"/>
      <point x="720.836419076" y="-123.393212849"/>
      <point x="755.6" y="-99.4568888889" type="curve"/>
      <point x="740.9" y="-86.9888888889"/>
      <point x="755.6" y="-99.4568888889"/>
      <point x="740.9" y="-86.9888888889" type="curve"/>
      <point x="698.161690715" y="-113.977274472"/>
      <point x="669.430400325" y="-145.881088545"/>
      <point x="669.225" y="-194.766666667" type="curve"/>
      <point x="669.003400352" y="-280.14679769"/>
      <point x="754.225233051" y="-308.531111111"/>
      <point x="852.025" y="-308.531111111" type="curve"/>
      <point x="924.802431887" y="-308.531111111"/>
      <point x="980.533044504" y="-288.133639719"/>
      <point x="1042.625" y="-250.657777778" type="curve"/>
    </contour>
    <contour>
      <point x="352.075" y="37.4041111111"/>
      <point x="338.425" y="19.7411111111"/>
      <point x="352.075" y="37.4041111111" type="curve"/>
      <point x="209.764583772" y="103.399333539"/>
      <point x="90.4" y="170.480080196"/>
      <point x="90.4" y="317.137888889" type="curve"/>
      <point x="90.4" y="429.454674461"/>
      <point x="173.905883873" y="499.886666667"/>
      <point x="287.8" y="499.886666667" type="curve"/>
      <point x="378.86385978" y="499.886666667"/>
      <point x="450.229277848" y="477.878764836"/>
      <point x="521" y="421.222666667" type="curve"/>
      <point x="531.5" y="437.846666667"/>
      <point x="521" y="421.222666667"/>
      <point x="531.5" y="437.846666667" type="curve"/>
      <point x="458.296606229" y="497.369308105"/>
      <point x="383.936047497" y="520.666666667"/>
      <point x="289.9" y="520.666666667" type="curve"/>
      <point x="160.893672855" y="520.666666667"/>
      <point x="67.3" y="441.116910797"/>
      <point x="67.3" y="316.098888889" type="curve"/>
      <point x="67.3" y="162.358869606"/>
      <point x="189.035057288" y="87.1231891688"/>
      <point x="338.425" y="19.7411111111" type="curve"/>
    </contour>
    <contour>
      <point x="1080" y="722"/>
      <point x="1080" y="701.22"/>
      <point x="1080" y="722" type="curve"/>
      <point x="714.1536585" y="722"/>
      <point x="348.2963415" y="722"/>
      <point x="-17.55" y="722" type="curve"/>
      <point x="-17.55" y="701.22"/>
      <point x="-17.55" y="722"/>
      <point x="-17.55" y="701.22" type="curve"/>
      <point x="348.2963415" y="701.22"/>
      <point x="714.1536585" y="701.22"/>
      <point x="1080" y="701.22" type="curve"/>
    </contour>
    <contour>
      <point x="689.9" y="710.222222222"/>
      <point x="713" y="710.222222222"/>
      <point x="689.9" y="710.222222222" type="curve"/>
      <point x="689.9" y="643.704368889"/>
      <point x="689.9" y="577.18452"/>
      <point x="689.9" y="510.666666667" type="curve"/>
      <point x="713" y="510.666666667"/>
      <point x="689.9" y="510.666666667"/>
      <point x="713" y="510.666666667" type="curve"/>
      <point x="713" y="577.18452"/>
      <point x="713" y="643.704368889"/>
      <point x="713" y="710.222222222" type="curve"/>
    </contour>
    <contour>
      <point x="517.5" y="288.322666667"/>
      <point x="498.6" y="284.166666667"/>
      <point x="517.5" y="288.322666667" type="curve"/>
      <point x="484.258350709" y="407.473436414"/>
      <point x="566.13212911" y="496.893333333"/>
      <point x="698.325" y="496.893333333" type="curve"/>
      <point x="826.714386847" y="496.893333333"/>
      <point x="931.55" y="470.151762986"/>
      <point x="931.55" y="358.924222222" type="curve"/>
      <point x="931.55" y="277.845769327"/>
      <point x="871.740404851" y="246.28579262"/>
      <point x="807.575" y="196.010666667" type="curve"/>
      <point x="728.978156505" y="134.052704621"/>
      <point x="642.522362922" y="105.814436923"/>
      <point x="641.175" y="5.751" type="curve"/>
      <point x="641.175" y="-79.1255341055"/>
      <point x="714.198822331" y="-111.751111111"/>
      <point x="808.9" y="-111.751111111" type="curve"/>
      <point x="873.182889112" y="-111.751111111"/>
      <point x="916.977929223" y="-97.199944259"/>
      <point x="973.325" y="-64.7352222222" type="curve"/>
      <point x="961.775" y="-47.0722222222"/>
      <point x="973.325" y="-64.7352222222"/>
      <point x="961.775" y="-47.0722222222" type="curve"/>
      <point x="909.046506056" y="-74.2510762469"/>
      <point x="870.054436327" y="-90.9711111111"/>
      <point x="811" y="-90.9711111111" type="curve"/>
      <point x="728.800760217" y="-90.9711111111"/>
      <point x="663.225" y="-65.9410720216"/>
      <point x="663.225" y="6.79" type="curve"/>
      <point x="663.41847838" y="98.8730336209"/>
      <point x="749.79157806" y="122.674694284"/>
      <point x="821.225" y="179.386666667" type="curve"/>
      <point x="893.820977424" y="235.860426221"/>
      <point x="954.65" y="269.502213278"/>
      <point x="954.65" y="361.002222222" type="curve"/>
      <point x="954.65" y="481.941615561"/>
      <point x="839.915999452" y="517.673333333"/>
      <point x="701.475" y="517.673333333" type="curve"/>
      <point x="552.457234537" y="517.673333333"/>
      <point x="460.200060848" y="417.545486671"/>
      <point x="498.6" y="284.166666667" type="curve"/>
    </contour>
  </outline>
</glyph>
<glyph name="doubledanda" format="1">
  <advance width="840.0"/>
  <unicode hex="0965"/>
  <outline>
    <contour>
      <point x="591" y="722"/>
      <point x="614" y="722"/>
      <point x="591" y="722" type="curve"/>
      <point x="591" y="481"/>
      <point x="591" y="241"/>
      <point x="591" y="0" type="curve"/>
      <point x="614" y="0"/>
      <point x="591" y="0"/>
      <point x="614" y="0" type="curve"/>
      <point x="614" y="241"/>
      <point x="614" y="481"/>
      <point x="614" y="722" type="curve"/>
    </contour>
    <contour>
      <point x="229" y="722"/>
      <point x="252" y="722"/>
      <point x="229" y="722" type="curve"/>
      <point x="229" y="481"/>
      <point x="229" y="241"/>
      <point x="229" y="0" type="curve"/>
      <point x="252" y="0"/>
      <point x="229" y="0"/>
      <point x="252" y="0" type="curve"/>
      <point x="252" y="241"/>
      <point x="252" y="481"/>
      <point x="252" y="722" type="curve"/>
    </contour>
  </outline>
</glyph>
<glyph name="dvZero" format="1">
  <advance width="707.0"/>
  <unicode hex="0966"/>
  <outline>
    <contour>
      <point x="89" y="350"/>
      <point x="66" y="350"/>
      <point x="89" y="350" type="curve"/>
      <point x="89" y="502"/>
      <point x="206" y="585"/>
      <point x="366" y="585" type="curve"/>
      <point x="528" y="585"/>
      <point x="652" y="508"/>
      <point x="649" y="355" type="curve"/>
      <point x="649" y="203"/>
      <point x="530" y="124"/>
      <point x="368" y="124" type="curve"/>
      <point x="206" y="124"/>
      <point x="89" y="198"/>
      <point x="89" y="350" type="curve"/>
      <point x="66" y="350"/>
      <point x="89" y="350"/>
      <point x="66" y="350" type="curve"/>
      <point x="66" y="186"/>
      <point x="190" y="104"/>
      <point x="367" y="104" type="curve"/>
      <point x="544" y="104"/>
      <point x="672" y="190"/>
      <point x="672" y="356" type="curve"/>
      <point x="673" y="521"/>
      <point x="544" y="605"/>
      <point x="368" y="605" type="curve"/>
      <point x="192" y="605"/>
      <point x="66" y="518"/>
      <point x="66" y="350" type="curve"/>
    </contour>
  </outline>
</glyph>
<glyph name="dvOne" format="1">
  <advance width="598.0"/>
  <unicode hex="0967"/>
  <outline>
    <contour>
      <point x="389" y="-46"/>
      <point x="367" y="-37"/>
      <point x="389" y="-46" type="curve"/>
      <point x="403" y="-31"/>
      <point x="417" y="5"/>
      <point x="417" y="38" type="curve"/>
      <point x="417" y="200"/>
      <point x="232" y="221"/>
      <point x="65" y="254" type="curve"/>
      <point x="65" y="231"/>
      <point x="65" y="254"/>
      <point x="65" y="231" type="curve"/>
      <point x="223" y="199"/>
      <point x="393" y="180"/>
      <point x="393" y="35" type="curve"/>
      <point x="393" y="7"/>
      <point x="381" y="-21"/>
      <point x="367" y="-37" type="curve"/>
    </contour>
    <contour>
      <point x="411" y="345"/>
      <point x="403" y="326"/>
      <point x="411" y="345" type="curve"/>
      <point x="251" y="358"/>
      <point x="106" y="401"/>
      <point x="106" y="544" type="curve"/>
      <point x="107" y="649"/>
      <point x="191" y="703"/>
      <point x="304" y="703" type="curve"/>
      <point x="425" y="703"/>
      <point x="516" y="652"/>
      <point x="518" y="540" type="curve"/>
      <point x="519" y="322"/>
      <point x="297" y="304"/>
      <point x="65" y="254" type="curve"/>
      <point x="65" y="231"/>
      <point x="65" y="254"/>
      <point x="65" y="231" type="curve"/>
      <point x="313" y="278"/>
      <point x="541" y="311"/>
      <point x="541" y="541" type="curve"/>
      <point x="540" y="667"/>
      <point x="440" y="726"/>
      <point x="305" y="726" type="curve"/>
      <point x="177" y="726"/>
      <point x="84" y="663"/>
      <point x="83" y="543" type="curve"/>
      <point x="83" y="391"/>
      <point x="233" y="338"/>
      <point x="403" y="326" type="curve"/>
    </contour>
  </outline>
</glyph>
<glyph name="dvFive" format="1">
  <advance width="790"/>
  <unicode hex="096B"/>
  <outline>
    <contour>
      <point x="521" y="59"/>
      <point x="518" y="80"/>
      <point x="521" y="59" type="curve"/>
      <point x="642" y="65"/>
      <point x="743" y="115"/>
      <point x="743" y="226" type="curve"/>
      <point x="743" y="367"/>
      <point x="635" y="436"/>
      <point x="544" y="541" type="curve"/>
      <point x="528" y="528"/>
      <point x="544" y="541"/>
      <point x="528" y="528" type="curve"/>
      <point x="615" y="427"/>
      <point x="720" y="359"/>
      <point x="720" y="225" type="curve"/>
      <point x="720" y="127"/>
      <point x="628" y="84"/>
      <point x="518" y="80" type="curve"/>
    </contour>
    <contour>
      <point x="178" y="754"/>
      <point x="195" y="740"/>
      <point x="178" y="754" type="curve"/>
      <point x="101" y="697"/>
      <point x="60" y="628"/>
      <point x="60" y="533" type="curve"/>
      <point x="60" y="379"/>
      <point x="174" y="281"/>
      <point x="331" y="281" type="curve"/>
      <point x="485" y="281"/>
      <point x="615" y="340"/>
      <point x="615" y="478" type="curve"/>
      <point x="615" y="518"/>
      <point x="585" y="543"/>
      <point x="544" y="541" type="curve"/>
      <point x="528" y="528"/>
      <point x="544" y="541"/>
      <point x="528" y="528" type="curve"/>
      <point x="551" y="514"/>
      <point x="593" y="501"/>
      <point x="593" y="475" type="curve"/>
      <point x="593" y="351"/>
      <point x="466" y="302"/>
      <point x="332" y="302" type="curve"/>
      <point x="188" y="302"/>
      <point x="83" y="393"/>
      <point x="83" y="534" type="curve"/>
      <point x="83" y="622"/>
      <point x="122" y="687"/>
      <point x="195" y="740" type="curve"/>
    </contour>
  </outline>
</glyph>
<glyph name="dvSix" format="1">
  <advance width="676.0"/>
  <unicode hex="096C"/>
  <outline>
    <contour>
      <point x="650" y="-97"/>
      <point x="626" y="-104"/>
      <point x="650" y="-97" type="curve"/>
      <point x="609" y="10"/>
      <point x="569" y="116"/>
      <point x="529" y="223" type="curve"/>
      <point x="505" y="213"/>
      <point x="529" y="223"/>
      <point x="505" y="213" type="curve"/>
      <point x="545" y="108"/>
      <point x="586" y="2"/>
      <point x="626" y="-104" type="curve"/>
    </contour>
    <contour>
      <point x="536" y="684"/>
      <point x="526" y="667"/>
      <point x="536" y="684" type="curve"/>
      <point x="471" y="713"/>
      <point x="415" y="727"/>
      <point x="344" y="727" type="curve"/>
      <point x="214" y="727"/>
      <point x="103" y="682"/>
      <point x="103" y="567" type="curve"/>
      <point x="104" y="419"/>
      <point x="261" y="390"/>
      <point x="433" y="390" type="curve"/>
      <point x="433" y="408"/>
      <point x="433" y="390"/>
      <point x="433" y="408" type="curve"/>
      <point x="274" y="408"/>
      <point x="128" y="431"/>
      <point x="126" y="569" type="curve"/>
      <point x="125" y="670"/>
      <point x="227" y="706"/>
      <point x="344" y="706" type="curve"/>
      <point x="412" y="706"/>
      <point x="464" y="696"/>
      <point x="526" y="667" type="curve"/>
    </contour>
    <contour>
      <point x="505" y="213"/>
      <point x="529" y="223"/>
      <point x="505" y="213" type="curve"/>
      <point x="528" y="200"/>
      <point x="549" y="186"/>
      <point x="549" y="159" type="curve"/>
      <point x="549" y="77"/>
      <point x="456" y="60"/>
      <point x="365" y="60" type="curve"/>
      <point x="218" y="57"/>
      <point x="89" y="99"/>
      <point x="92" y="225" type="curve"/>
      <point x="96" y="375"/>
      <point x="260" y="388"/>
      <point x="433" y="388" type="curve"/>
      <point x="433" y="405"/>
      <point x="433" y="388"/>
      <point x="433" y="405" type="curve"/>
      <point x="248" y="405"/>
      <point x="73" y="386"/>
      <point x="69" y="225" type="curve"/>
      <point x="66" y="86"/>
      <point x="205" y="35"/>
      <point x="364" y="40" type="curve"/>
      <point x="475" y="40"/>
      <point x="573" y="65"/>
      <point x="573" y="161" type="curve"/>
      <point x="573" y="193"/>
      <point x="558" y="218"/>
      <point x="529" y="223" type="curve"/>
    </contour>
  </outline>
</glyph>
<glyph name="dvSeven" format="1">
  <advance width="866.0"/>
  <unicode hex="096D"/>
  <outline>
    <contour>
      <point x="156" y="730"/>
      <point x="177" y="722"/>
      <point x="156" y="730" type="curve"/>
      <point x="95" y="611"/>
      <point x="65" y="509"/>
      <point x="65" y="376" type="curve"/>
      <point x="65" y="162"/>
      <point x="227" y="30"/>
      <point x="448" y="30" type="curve"/>
      <point x="657" y="30"/>
      <point x="806" y="165"/>
      <point x="806" y="371" type="curve"/>
      <point x="806" y="502"/>
      <point x="710" y="585"/>
      <point x="576" y="585" type="curve"/>
      <point x="472" y="585"/>
      <point x="393" y="530"/>
      <point x="393" y="433" type="curve"/>
      <point x="393" y="263"/>
      <point x="567" y="224"/>
      <point x="752" y="192" type="curve"/>
      <point x="757" y="209"/>
      <point x="752" y="192"/>
      <point x="757" y="209" type="curve"/>
      <point x="591" y="244"/>
      <point x="416" y="272"/>
      <point x="416" y="434" type="curve"/>
      <point x="416" y="518"/>
      <point x="485" y="565"/>
      <point x="575" y="565" type="curve"/>
      <point x="696" y="565"/>
      <point x="782" y="488"/>
      <point x="782" y="369" type="curve"/>
      <point x="782" y="176"/>
      <point x="644" y="51"/>
      <point x="449" y="51" type="curve"/>
      <point x="241" y="51"/>
      <point x="88" y="175"/>
      <point x="88" y="376" type="curve"/>
      <point x="88" y="506"/>
      <point x="117" y="607"/>
      <point x="177" y="722" type="curve"/>
    </contour>
  </outline>
</glyph>
<glyph name="dvEight" format="1">
  <advance width="749.0"/>
  <unicode hex="096E"/>
  <outline>
    <contour>
      <point x="692" y="89"/>
      <point x="705" y="72"/>
      <point x="692" y="89" type="curve"/>
      <point x="601" y="38"/>
      <point x="521" y="8"/>
      <point x="416" y="8" type="curve"/>
      <point x="263" y="8"/>
      <point x="112" y="71"/>
      <point x="112" y="218" type="curve"/>
      <point x="112" y="477"/>
      <point x="351" y="584"/>
      <point x="585" y="716" type="curve"/>
      <point x="571" y="733"/>
      <point x="585" y="716"/>
      <point x="571" y="733" type="curve"/>
      <point x="328" y="600"/>
      <point x="89" y="489"/>
      <point x="89" y="217" type="curve"/>
      <point x="89" y="58"/>
      <point x="237" y="-13"/>
      <point x="415" y="-13" type="curve"/>
      <point x="525" y="-13"/>
      <point x="611" y="15"/>
      <point x="705" y="72" type="curve"/>
    </contour>
  </outline>
</glyph>
